<?xml version="1.0" standalone="no"?>
<!DOCTYPE svg PUBLIC "-//W3C//DTD SVG 20010904//EN"
 "http://www.w3.org/TR/2001/REC-SVG-20010904/DTD/svg10.dtd">
<svg version="1.0" xmlns="http://www.w3.org/2000/svg"
 width="735.000000pt" height="688.000000pt" viewBox="0 0 735.000000 688.000000"
 preserveAspectRatio="xMidYMid meet">

<g transform="translate(0.000000,688.000000) scale(0.100000,-0.100000)"
fill="#000000" stroke="none">
<path d="M5644 6198 c-6 -13 -45 -89 -87 -169 -42 -80 -77 -151 -77 -159 0
-10 33 -11 163 -6 271 12 648 34 653 38 3 4 -586 297 -631 314 -5 2 -15 -6
-21 -18z m292 -187 c19 16 34 2 34 -33 0 -27 -3 -30 -24 -24 -14 3 -27 3 -30
-2 -2 -4 -19 -8 -38 -7 -30 0 -33 3 -36 33 -2 18 1 32 7 32 6 0 11 -11 11 -25
0 -14 5 -25 10 -25 6 0 10 11 10 24 0 26 19 39 34 25 5 -5 15 -4 22 2z m80 -7
c-3 -9 -2 -24 4 -33 8 -16 5 -18 -15 -18 -21 0 -25 4 -25 31 0 25 4 32 21 33
15 1 19 -2 15 -13z m-281 -21 c-2 -15 1 -30 7 -34 7 -4 -10 -7 -37 -7 -47 2
-50 3 -52 29 -2 28 1 30 65 37 19 1 22 -2 17 -25z m35 14 c0 6 9 11 20 10 15
-1 20 -8 20 -33 0 -27 -4 -31 -24 -31 -24 0 -36 19 -36 57 0 13 1 13 10 0 6
-9 10 -10 10 -3z m169 -90 c0 -21 -1 -21 -9 -2 -12 28 -12 37 0 30 6 -3 10
-16 9 -28z m46 12 c-4 -5 -1 -9 4 -9 6 0 11 7 11 16 0 8 5 12 10 9 19 -12 10
-33 -15 -37 -21 -4 -25 -1 -25 19 0 14 4 21 10 18 6 -4 8 -11 5 -16z m60 11
c-3 -5 -1 -10 4 -10 6 0 11 -4 11 -10 0 -19 -26 -10 -27 10 -1 11 3 20 8 20 6
0 7 -4 4 -10z m35 -10 c0 -11 -2 -20 -4 -20 -2 0 -6 9 -9 20 -3 11 -1 20 4 20
5 0 9 -9 9 -20z m33 0 c3 -13 0 -20 -9 -20 -8 0 -14 9 -14 20 0 11 4 20 9 20
5 0 11 -9 14 -20z m-357 -15 c0 -14 -4 -25 -8 -25 -4 0 -8 8 -8 17 0 15 -1 15
-13 -2 -15 -19 -37 -13 -37 10 0 7 12 16 28 18 15 2 29 5 33 6 3 0 5 -10 5
-24z m48 13 c-6 -10 -4 -10 7 -2 25 19 59 15 59 -7 0 -11 -7 -19 -16 -19 -8 0
-13 4 -9 10 3 5 -7 3 -22 -5 -16 -9 -31 -11 -37 -5 -11 11 -1 40 14 40 6 0 8
-6 4 -12z m110 -4 c9 -23 8 -24 -13 -24 -14 0 -18 5 -14 20 6 24 19 26 27 4z
m-268 -11 c13 -17 13 -17 14 0 0 23 16 22 23 -3 4 -17 0 -20 -27 -20 -25 0
-32 4 -33 20 -2 25 6 25 23 3z"/>
<path d="M5902 5980 c0 -14 2 -19 5 -12 2 6 2 18 0 25 -3 6 -5 1 -5 -13z"/>
<path d="M445 5982 c-82 -37 -216 -96 -297 -132 l-148 -64 0 -193 c0 -160 3
-198 17 -228 9 -19 19 -35 22 -35 7 0 23 20 326 405 125 160 232 296 238 303
16 20 -2 14 -158 -56z m-20 -150 c-7 -8 -35 7 -35 18 0 6 7 6 20 -2 10 -7 17
-14 15 -16z m-113 -41 c-12 -12 -17 -11 -34 7 -17 17 -19 24 -9 36 10 12 15
11 34 -7 18 -18 20 -24 9 -36z m89 33 c12 -15 11 -16 -11 -9 -23 7 -24 6 -11
-9 13 -15 12 -20 -8 -39 -19 -19 -23 -20 -31 -7 -7 11 -4 16 12 18 15 3 17 6
9 12 -10 6 -10 12 0 29 17 25 22 26 40 5z m-117 -43 c15 -16 15 -19 1 -31 -14
-11 -19 -10 -37 7 -21 21 -18 43 6 43 7 0 20 -8 30 -19z m-31 -38 c14 -17 13
-20 -8 -47 -23 -29 -24 -29 -50 -12 -14 9 -23 21 -19 27 4 6 13 4 25 -7 25
-23 37 -10 15 15 -19 20 -14 41 8 41 7 0 20 -8 29 -17z m87 2 c7 -8 8 -15 2
-15 -5 0 -15 7 -22 15 -7 8 -8 15 -2 15 5 0 15 -7 22 -15z m-28 -53 c-1 -1 -7
-9 -15 -16 -11 -12 -15 -11 -26 6 -12 19 -11 20 16 14 25 -6 26 -5 11 7 -10 8
-15 17 -11 21 6 6 29 -24 25 -32z m-140 -29 c22 -20 23 -30 3 -50 -13 -12 -18
-13 -31 -2 -12 10 -17 10 -27 -1 -9 -10 -9 -11 1 -6 7 4 12 1 12 -8 0 -10 6
-13 18 -9 15 6 15 5 3 -10 -7 -9 -18 -14 -24 -10 -6 3 -7 1 -3 -6 4 -6 0 -19
-9 -28 -15 -15 -18 -14 -38 7 -16 16 -18 24 -9 27 6 3 10 9 6 14 -8 13 10 11
26 -3 12 -11 12 -10 1 5 -11 14 -11 20 0 34 29 37 39 44 51 37 9 -6 9 -3 -1 9
-17 22 -3 22 21 0z m94 -8 c9 -8 12 -15 7 -15 -5 0 -17 -13 -26 -30 -19 -31
-47 -32 -47 -1 0 11 3 12 8 4 4 -7 13 -9 21 -4 9 6 10 11 2 15 -20 13 -12 28
11 20 20 -6 21 -5 9 10 -17 20 -5 21 15 1z m-75 -92 c12 -15 12 -16 -5 -10
-15 6 -17 5 -8 -6 9 -11 6 -19 -13 -37 -14 -13 -25 -29 -25 -37 0 -17 -11 -17
-35 0 -12 10 -14 16 -7 21 7 4 12 2 12 -3 0 -6 5 -11 11 -11 6 0 8 9 4 21 -6
18 -4 20 17 14 18 -5 20 -4 8 4 -13 10 -13 12 0 21 8 5 11 10 7 10 -4 0 -2 7
5 15 16 18 13 18 29 -2z"/>
<path d="M255 5770 c3 -5 11 -10 16 -10 6 0 7 5 4 10 -3 6 -11 10 -16 10 -6 0
-7 -4 -4 -10z"/>
<path d="M220 5741 c0 -5 7 -12 16 -15 14 -5 15 -4 4 9 -14 17 -20 19 -20 6z"/>
<path d="M1210 6026 c0 -2 9 -6 20 -9 11 -3 18 -1 14 4 -5 9 -34 13 -34 5z"/>
<path d="M1190 6001 c0 -5 7 -11 15 -15 8 -3 15 -1 15 3 0 5 -7 11 -15 15 -8
3 -15 1 -15 -3z"/>
<path d="M1150 5971 c0 -13 26 -32 33 -24 8 7 -11 33 -24 33 -5 0 -9 -4 -9 -9z"/>
<path d="M1110 5940 c0 -5 -9 -10 -20 -10 -22 0 -25 -7 -11 -29 11 -16 31 -6
31 16 0 12 3 13 14 4 12 -10 13 -8 9 8 -5 21 -23 29 -23 11z m-10 -30 c0 -5
-2 -10 -4 -10 -3 0 -8 5 -11 10 -3 6 -1 10 4 10 6 0 11 -4 11 -10z"/>
<path d="M1140 5940 c0 -5 5 -10 11 -10 5 0 7 5 4 10 -3 6 -8 10 -11 10 -2 0
-4 -4 -4 -10z"/>
<path d="M1032 5893 c2 -10 10 -18 18 -18 22 0 18 29 -3 33 -14 3 -18 -1 -15
-15z m28 -3 c0 -5 -4 -10 -10 -10 -5 0 -10 5 -10 10 0 6 5 10 10 10 6 0 10 -4
10 -10z"/>
<path d="M980 5876 c0 -8 4 -17 9 -20 5 -4 7 3 4 14 -6 23 -13 26 -13 6z"/>
<path d="M1006 5877 c3 -10 9 -15 12 -12 3 3 0 11 -7 18 -10 9 -11 8 -5 -6z"/>
<path d="M934 5869 c-11 -18 14 -35 29 -20 10 10 9 11 -5 6 -20 -8 -25 10 -5
18 9 4 9 6 0 6 -6 1 -15 -4 -19 -10z"/>
<path d="M840 5849 c0 -5 -4 -7 -10 -4 -5 3 -10 -1 -10 -9 0 -10 6 -13 15 -10
14 6 22 34 10 34 -3 0 -5 -5 -5 -11z"/>
<path d="M876 5845 c4 -8 8 -15 10 -15 2 0 4 7 4 15 0 8 -4 15 -10 15 -5 0 -7
-7 -4 -15z"/>
<path d="M775 5840 c-9 -15 4 -30 23 -29 15 1 15 2 0 6 -21 5 -23 19 -5 26 9
4 9 6 0 6 -6 1 -15 -3 -18 -9z"/>
<path d="M1353 5833 l-33 -17 6 -130 c4 -72 9 -145 13 -163 l6 -31 34 14 c31
13 33 17 28 48 -5 32 -4 35 38 51 43 16 45 16 72 -5 25 -18 33 -19 61 -9 18 6
32 14 32 18 0 4 -18 25 -41 46 -22 22 -70 75 -106 118 -35 42 -68 77 -71 76
-4 0 -22 -8 -39 -16z m86 -164 c-36 -22 -49 -11 -49 43 l0 52 32 -43 c25 -35
28 -45 17 -52z"/>
<path d="M720 5828 c0 -4 9 -12 20 -18 17 -9 20 -8 20 8 0 11 -7 18 -20 18
-11 0 -20 -4 -20 -8z"/>
<path d="M700 5814 c0 -8 -4 -12 -10 -9 -5 3 -10 1 -10 -4 0 -6 7 -11 15 -11
8 0 15 9 15 20 0 11 -2 20 -5 20 -3 0 -5 -7 -5 -16z"/>
<path d="M636 5813 c-11 -11 -6 -23 9 -23 8 0 15 4 15 9 0 13 -16 22 -24 14z"/>
<path d="M535 5771 c-3 -5 -1 -12 5 -16 5 -3 10 1 10 9 0 18 -6 21 -15 7z"/>
<path d="M598 5773 c7 -3 16 -2 19 1 4 3 -2 6 -13 5 -11 0 -14 -3 -6 -6z"/>
<path d="M482 5748 c2 -6 11 -13 19 -16 12 -3 12 -2 0 6 -11 8 -11 10 0 15 10
4 8 6 -4 6 -10 1 -17 -4 -15 -11z"/>
<path d="M1158 5749 c-24 -14 -23 -37 8 -103 14 -32 24 -59 22 -61 -2 -3 -40
21 -84 51 -74 51 -82 54 -107 43 -15 -7 -27 -18 -27 -24 0 -7 14 -42 30 -79
17 -37 40 -90 50 -119 30 -78 32 -80 63 -66 33 15 33 20 2 99 -14 35 -23 65
-21 67 2 3 38 -21 80 -51 78 -58 79 -58 133 -31 5 3 -57 170 -84 228 -27 58
-35 64 -65 46z"/>
<path d="M5640 5653 c-58 -120 -91 -195 -88 -198 15 -15 158 -75 179 -75 42 0
79 35 79 75 0 19 -4 37 -10 40 -17 10 -11 23 14 29 14 3 29 18 36 37 11 27 11
34 -7 57 -16 22 -143 101 -164 102 -4 0 -21 -30 -39 -67z m131 -32 c20 -16 22
-23 13 -38 -13 -19 -59 -22 -77 -4 -14 14 7 61 27 61 7 0 24 -9 37 -19z m-67
-102 c32 -15 41 -38 22 -57 -14 -15 -46 -12 -75 7 -11 7 -10 13 4 35 20 30 17
29 49 15z"/>
<path d="M396 5691 c-3 -5 1 -14 8 -20 10 -8 16 -9 21 -1 3 5 -2 10 -12 10
-15 0 -16 2 -3 10 9 6 10 10 3 10 -6 0 -14 -4 -17 -9z"/>
<path d="M363 5650 c2 -8 12 -16 23 -17 13 -2 15 -1 4 4 -8 3 -19 11 -23 17
-6 7 -7 6 -4 -4z"/>
<path d="M825 5605 c-44 -18 -81 -37 -83 -43 -2 -7 97 -246 114 -274 2 -3 44
11 92 32 80 35 87 40 85 65 -1 15 -4 30 -7 32 -3 3 -30 -7 -62 -21 -31 -15
-58 -25 -59 -24 -8 10 -26 50 -23 52 2 1 22 10 46 21 47 20 46 19 32 46 -12
22 -37 24 -75 7 -22 -10 -27 -9 -40 8 -8 10 -15 22 -15 25 0 4 25 17 55 29 30
12 55 24 55 26 0 9 -24 54 -29 54 -3 -1 -42 -16 -86 -35z"/>
<path d="M5916 5581 c-21 -23 -20 -28 8 -43 l23 -13 -36 -75 c-32 -68 -39 -75
-65 -75 -18 0 -34 -8 -42 -21 -13 -19 -10 -22 63 -59 l76 -38 19 23 c19 24 19
24 -6 37 l-26 14 41 80 c36 73 42 80 64 75 18 -5 27 -1 36 15 14 27 9 31 -73
68 -63 28 -67 28 -82 12z"/>
<path d="M613 5516 c-56 -24 -73 -36 -73 -51 0 -36 15 -49 40 -35 12 6 23 10
26 8 2 -2 19 -39 38 -81 34 -74 35 -77 16 -87 -21 -11 -26 -36 -11 -58 12 -19
161 43 161 66 0 30 -16 43 -41 37 -22 -5 -27 1 -57 67 -36 82 -38 93 -17 102
18 7 19 27 3 48 -12 13 -21 12 -85 -16z"/>
<path d="M6058 5367 l-66 -133 93 -46 92 -47 13 25 c16 28 19 25 -47 58 -29
14 -53 28 -53 31 0 2 4 15 10 29 l9 26 46 -22 c40 -19 47 -20 56 -8 15 25 6
43 -33 65 -35 20 -36 21 -22 48 l15 27 50 -25 c53 -28 64 -27 72 5 4 17 -7 27
-74 60 -43 22 -82 40 -86 40 -5 0 -38 -60 -75 -133z"/>
<path d="M1437 5453 c-4 -3 -7 -37 -7 -74 0 -57 3 -67 15 -63 8 4 15 13 15 21
0 25 31 43 52 30 37 -24 30 5 -12 48 -45 46 -52 50 -63 38z m43 -54 c0 -14
-17 -10 -23 5 -4 10 -1 13 9 9 7 -3 14 -9 14 -14z"/>
<path d="M345 5403 c-33 -15 -62 -28 -65 -30 -2 -2 14 -41 37 -86 22 -45 46
-100 53 -122 7 -22 16 -43 19 -48 9 -9 126 28 169 55 55 33 56 105 2 136 -24
13 -30 24 -30 50 0 74 -75 92 -185 45z m115 -57 c0 -15 -9 -27 -26 -35 -22
-10 -28 -9 -40 6 -20 27 -17 40 14 51 36 12 52 5 52 -22z m57 -106 c4 -23 -9
-38 -40 -45 -22 -6 -28 -3 -36 16 -7 18 -5 27 7 37 22 17 66 11 69 -8z"/>
<path d="M1318 5403 c-21 -9 -38 -22 -38 -30 0 -12 35 -90 46 -102 6 -7 84 31
84 41 0 11 -17 10 -42 -3 -16 -8 -22 -8 -29 2 -6 10 0 18 16 27 14 7 25 17 25
22 0 13 -7 13 -32 -1 -13 -7 -23 -8 -30 -1 -7 7 0 16 21 27 17 9 29 20 26 25
-4 6 -7 10 -8 9 -1 -1 -19 -8 -39 -16z"/>
<path d="M6285 5258 c-35 -73 -61 -136 -57 -140 4 -3 19 -10 34 -13 26 -7 29
-3 60 59 18 36 35 66 38 66 3 0 12 -40 19 -89 8 -49 16 -93 20 -98 7 -12 51
-36 55 -31 8 9 126 261 126 268 0 4 -7 11 -16 14 -38 14 -51 5 -83 -60 -18
-36 -35 -64 -37 -61 -3 3 -9 36 -15 73 -15 110 -18 121 -45 133 -14 6 -27 11
-29 11 -3 0 -34 -60 -70 -132z"/>
<path d="M1183 5344 l-33 -14 25 -56 c14 -31 25 -58 25 -61 0 -2 5 -1 11 3 6
3 8 17 5 30 -5 17 -2 24 7 24 16 0 47 31 47 48 0 15 -29 42 -43 41 -7 0 -27
-7 -44 -15z m57 -28 c0 -18 -30 -30 -43 -17 -5 5 -6 14 -3 20 10 16 46 13 46
-3z"/>
<path d="M1089 5284 c-9 -26 -10 -26 -24 -8 -24 33 -28 -7 -7 -62 21 -54 39
-60 34 -13 -2 32 4 32 41 1 12 -11 21 -12 28 -5 7 7 1 17 -21 33 -26 19 -30
27 -25 51 8 37 -12 39 -26 3z"/>
<path d="M1608 5243 c-18 -76 -64 -260 -77 -310 -5 -19 -5 -33 0 -33 4 0 29
66 55 148 25 81 52 166 60 190 18 56 18 72 -4 72 -13 0 -21 -16 -34 -67z"/>
<path d="M5646 5284 c-24 -23 -20 -70 6 -88 27 -19 68 -21 68 -3 0 7 -11 13
-26 12 -33 0 -53 28 -38 53 16 25 51 27 66 3 13 -22 28 -28 28 -11 0 17 -43
50 -66 50 -12 0 -30 -7 -38 -16z"/>
<path d="M1380 5245 c-6 -8 -10 -22 -8 -32 3 -14 11 -17 41 -15 20 2 37 -1 37
-6 0 -18 -29 -34 -50 -27 -24 8 -27 -10 -4 -19 25 -10 66 21 62 47 -2 18 -9
22 -36 19 -22 -1 -32 2 -32 12 0 16 27 29 41 20 5 -3 9 0 9 5 0 16 -46 13 -60
-4z"/>
<path d="M931 5231 c-12 -12 -21 -32 -21 -46 0 -29 32 -65 59 -65 20 0 71 36
71 51 0 15 -27 10 -34 -7 -4 -10 -15 -14 -33 -12 -22 2 -29 9 -31 30 -3 28 19
48 48 45 8 -1 17 3 20 8 3 6 -9 11 -27 13 -22 2 -38 -3 -52 -17z"/>
<path d="M5771 5198 c-23 -56 -20 -75 7 -41 13 16 22 19 40 12 25 -10 26 -13
12 -40 -8 -15 -7 -19 4 -19 8 0 22 20 32 45 18 48 13 71 -9 41 -20 -28 -61
-12 -53 19 12 46 -12 34 -33 -17z"/>
<path d="M1300 5188 c-11 -33 -11 -33 -24 -10 -20 38 -24 15 -7 -43 16 -54 39
-80 27 -30 -10 39 2 48 31 25 14 -11 30 -17 35 -14 5 4 -4 16 -21 28 -17 11
-29 27 -26 34 3 6 8 19 11 27 3 8 2 15 -4 15 -6 0 -15 -15 -22 -32z"/>
<path d="M6602 5113 c-56 -60 -102 -112 -102 -118 -1 -5 12 -14 29 -19 25 -7
35 -5 51 9 19 17 22 17 65 1 39 -15 45 -21 45 -47 0 -22 8 -34 33 -49 l32 -20
6 103 c4 56 10 127 14 157 l7 55 -36 18 c-20 9 -38 17 -40 17 -1 0 -48 -48
-104 -107z m107 -25 c-4 -24 -8 -46 -9 -50 0 -13 -25 -9 -46 6 -18 14 -18 16
15 50 19 20 38 36 42 36 3 0 3 -19 -2 -42z"/>
<path d="M840 5196 c0 -3 21 -65 35 -105 4 -10 9 -11 16 -4 15 15 -17 113 -37
113 -8 0 -14 -2 -14 -4z"/>
<path d="M784 5155 c5 -18 1 -27 -13 -35 -26 -14 -28 -13 -34 10 -6 24 -27 27
-27 4 0 -35 24 -94 38 -94 10 0 12 7 8 24 -5 19 -1 26 14 31 24 8 40 -1 40
-21 0 -15 16 -19 24 -6 9 15 -27 112 -42 112 -10 0 -12 -7 -8 -25z"/>
<path d="M5902 5130 c-16 -38 -18 -50 -8 -50 13 0 46 66 46 90 0 26 -19 5 -38
-40z"/>
<path d="M1141 5133 c-33 -40 -11 -93 39 -93 30 0 65 31 58 52 -3 8 -9 5 -17
-10 -20 -38 -81 -24 -81 20 0 22 42 50 64 42 9 -3 16 -1 16 5 0 23 -58 12 -79
-16z"/>
<path d="M5978 5129 c-27 -15 -24 -74 4 -93 25 -18 68 -21 68 -6 0 6 -11 10
-24 10 -30 0 -49 22 -44 52 4 31 41 36 61 7 9 -11 21 -19 28 -17 9 3 5 13 -13
31 -29 28 -52 33 -80 16z"/>
<path d="M593 5105 c-31 -22 -32 -80 -2 -96 27 -14 78 -4 95 18 18 26 -4 35
-27 12 -23 -23 -33 -24 -53 -3 -28 28 -10 59 34 59 16 0 31 5 33 10 4 17 -57
17 -80 0z"/>
<path d="M5471 5118 c-2 -14 30 -158 60 -268 40 -149 39 -144 44 -138 3 3 -11
89 -32 191 -23 117 -40 182 -46 174 -5 -7 -6 0 -3 18 4 20 3 25 -2 16 -8 -11
-10 -11 -15 0 -3 8 -6 11 -6 7z"/>
<path d="M1030 5086 c-13 -35 -13 -119 0 -111 6 3 10 15 10 25 0 22 37 37 53
21 13 -13 27 -15 27 -3 0 4 -18 27 -40 51 l-39 44 -11 -27z m40 -36 c0 -4 -7
-10 -15 -14 -11 -4 -15 2 -15 21 0 21 2 24 15 13 8 -7 15 -16 15 -20z"/>
<path d="M5706 5084 c-3 -9 4 -25 20 -41 14 -14 23 -31 20 -39 -9 -24 -34 -14
-54 21 -11 20 -11 20 -12 0 0 -41 54 -62 80 -30 13 16 6 33 -22 53 -24 18 -23
42 2 42 12 0 24 -9 29 -22 5 -13 10 -17 14 -11 10 16 -20 43 -48 43 -12 0 -26
-7 -29 -16z"/>
<path d="M1957 5077 c-3 -8 -1 -20 4 -28 8 -12 10 -12 19 1 5 8 8 19 7 24 -5
16 -24 18 -30 3z"/>
<path d="M6106 5057 c-23 -57 -28 -77 -17 -77 6 0 15 9 21 20 15 29 30 25 30
-9 0 -16 7 -34 16 -42 14 -12 15 -8 9 34 -7 43 -5 48 16 55 13 5 18 11 12 15
-6 4 -23 3 -38 -3 -24 -9 -26 -8 -20 9 11 35 -14 33 -29 -2z"/>
<path d="M943 5045 c3 -16 9 -39 13 -50 6 -16 0 -13 -33 13 -43 34 -69 42 -60
18 3 -8 11 -33 17 -55 6 -23 16 -41 21 -41 6 0 8 7 5 16 -3 9 -9 28 -13 42
l-6 27 36 -28 c19 -15 42 -27 51 -27 13 0 13 5 -1 48 -19 57 -38 81 -30 37z"/>
<path d="M1416 5008 c-8 -73 -8 -108 3 -108 4 0 13 31 20 69 14 88 14 91 -3
91 -9 0 -15 -18 -20 -52z"/>
<path d="M1736 5041 c-3 -5 -22 -46 -41 -91 -35 -82 -44 -113 -26 -94 11 11
101 179 101 188 0 9 -28 7 -34 -3z"/>
<path d="M5813 5000 c-12 -27 -17 -50 -13 -50 5 0 14 16 21 35 7 19 16 35 20
35 4 0 10 -25 14 -55 3 -30 11 -55 16 -55 9 0 31 47 43 91 4 13 -3 6 -15 -16
-22 -39 -22 -40 -30 -15 -4 14 -10 37 -13 53 -9 39 -19 34 -43 -23z"/>
<path d="M1910 5008 c-10 -17 -16 -36 -13 -41 7 -12 53 41 53 61 0 22 -20 12
-40 -20z"/>
<path d="M6226 4990 c-24 -60 -19 -92 8 -54 10 13 16 14 39 3 23 -11 30 -10
43 3 23 23 10 52 -31 71 -20 9 -37 17 -39 17 -2 0 -11 -18 -20 -40z m58 4 c16
-6 23 -44 8 -44 -18 0 -45 28 -38 38 8 14 9 14 30 6z"/>
<path d="M754 4996 c-28 -22 -7 -51 37 -51 24 0 34 -5 34 -15 0 -10 -10 -15
-33 -15 -37 0 -38 -19 -1 -23 29 -3 64 30 56 53 -4 10 -20 15 -47 15 -27 0
-40 4 -40 14 0 18 22 26 51 19 15 -4 20 -3 15 5 -10 16 -48 15 -72 -2z"/>
<path d="M2810 5007 c0 -2 -15 -82 -34 -178 -48 -246 -48 -249 -38 -249 5 0
70 21 143 46 74 25 175 59 224 76 50 16 182 64 294 106 236 89 243 74 -54 117
-99 14 -245 37 -325 50 -211 36 -210 36 -210 32z m401 -171 c13 -14 11 -29 -2
-20 -6 3 -15 0 -20 -7 -7 -12 -9 -12 -9 0 0 11 -4 9 -15 -5 -15 -19 -15 -19
-30 1 -19 24 -15 50 8 49 9 -1 17 2 17 8 0 5 4 7 9 3 5 -3 13 0 18 7 5 9 9 7
11 -7 2 -11 8 -24 13 -29z m-95 -20 c7 -28 -2 -49 -18 -40 -6 4 -14 1 -18 -6
-12 -19 -37 -5 -42 24 -6 30 8 35 17 6 9 -28 28 -25 21 4 -3 12 -3 26 1 30 14
14 33 5 39 -18z m197 -6 c3 -11 1 -20 -4 -20 -5 0 -9 2 -9 4 0 2 -3 11 -6 20
-3 9 -2 16 4 16 5 0 12 -9 15 -20z m-29 -6 c8 -22 8 -26 -4 -19 -5 3 -10 2
-10 -3 0 -16 -83 -33 -92 -19 -11 17 -10 27 2 27 6 0 10 -7 10 -16 0 -8 4 -13
10 -9 5 3 7 12 3 20 -7 20 7 19 24 -2 13 -17 14 -16 8 5 -4 13 -2 22 4 22 6 0
11 -4 11 -10 0 -5 5 -10 11 -10 6 0 9 7 5 15 -3 8 -1 15 3 15 5 0 12 -7 15
-16z m-274 -35 c0 -16 -2 -29 -4 -29 -2 0 -11 -3 -19 -6 -10 -4 -21 4 -30 22
-9 17 -17 23 -21 15 -4 -6 -2 -11 4 -11 6 0 8 -4 5 -10 -3 -5 -1 -10 5 -10 6
0 8 -5 4 -11 -3 -6 -14 -9 -23 -6 -9 2 -22 -2 -29 -10 -19 -20 -29 -16 -40 16
-9 26 -8 30 11 35 12 3 24 1 28 -5 3 -6 9 -1 12 10 5 19 21 25 65 24 6 -1 12
3 12 9 0 5 5 6 10 3 6 -3 10 -19 10 -36z m140 -11 c0 -16 -3 -19 -11 -11 -6 6
-8 16 -5 22 11 17 16 13 16 -11z m-23 -15 c4 -11 -44 -37 -89 -48 -21 -5 -29
-3 -34 9 -9 23 2 31 21 16 13 -11 14 -10 9 4 -4 10 -1 16 9 16 8 0 18 -6 20
-12 3 -7 6 -4 7 7 1 19 1 19 14 2 15 -19 33 -6 20 14 -4 7 -1 10 6 7 8 -2 15
-9 17 -15z m-151 -31 c-2 -4 -1 -14 4 -22 7 -11 -3 -18 -43 -31 -29 -9 -59
-20 -68 -23 -11 -5 -18 -1 -22 13 -6 25 12 39 24 20 7 -11 9 -10 9 4 0 9 3 17
6 17 4 0 13 -8 21 -17 13 -17 14 -17 8 3 -4 15 1 23 22 31 35 14 45 15 39 5z"/>
<path d="M3136 4825 c4 -8 8 -15 10 -15 2 0 4 7 4 15 0 8 -4 15 -10 15 -5 0
-7 -7 -4 -15z"/>
<path d="M3090 4818 c0 -9 5 -20 10 -23 13 -8 13 5 0 25 -8 13 -10 13 -10 -2z"/>
<path d="M1141 4980 c-12 -7 -10 -19 9 -69 37 -100 54 -88 26 18 -17 62 -17
62 -35 51z"/>
<path d="M5957 4935 c-27 -25 -44 -45 -40 -45 5 0 14 5 19 10 18 18 62 -9 67
-39 2 -14 4 -1 5 29 0 32 -3 46 -6 33 -5 -16 -11 -20 -21 -14 -12 7 -11 12 1
30 8 11 18 18 21 14 4 -3 7 1 7 10 0 10 -1 17 -2 17 -2 0 -25 -21 -51 -45z"/>
<path d="M6356 4938 c-29 -70 -29 -72 14 -90 43 -18 57 -5 15 14 -45 20 -18
42 28 23 27 -11 20 10 -8 23 -32 15 -34 36 -2 26 12 -4 28 -9 35 -11 28 -11 9
15 -23 30 -46 22 -44 22 -59 -15z"/>
<path d="M1281 4951 c-9 -6 -11 -18 -6 -40 9 -44 25 -39 25 9 0 22 -1 40 -2
40 -2 0 -9 -4 -17 -9z"/>
<path d="M5149 4931 c8 -5 15 -17 16 -28 2 -27 25 -64 35 -58 12 8 1 35 -13
32 -7 -1 -11 4 -9 11 3 18 -16 52 -31 52 -8 0 -7 -3 2 -9z"/>
<path d="M6076 4905 c-35 -35 -27 -88 17 -104 24 -9 59 -3 52 9 -3 5 -14 6
-25 3 -28 -7 -50 14 -50 48 0 46 46 63 80 29 11 -11 20 -16 20 -11 0 14 -41
41 -62 41 -9 0 -23 -7 -32 -15z"/>
<path d="M1810 4869 c-18 -24 -38 -50 -43 -56 -6 -9 -6 -13 1 -13 16 0 85 87
80 101 -2 7 -19 -8 -38 -32z"/>
<path d="M6480 4855 c-30 -31 -39 -45 -28 -45 9 0 19 4 23 10 9 15 55 -11 55
-31 0 -10 5 -21 10 -24 7 -5 10 16 8 61 -2 37 -8 69 -13 71 -6 2 -31 -17 -55
-42z m50 -10 c0 -8 -4 -15 -9 -15 -13 0 -22 16 -14 24 11 11 23 6 23 -9z"/>
<path d="M5350 4886 c0 -12 24 -56 30 -56 4 0 10 -18 14 -40 3 -22 11 -40 16
-40 22 0 -20 134 -43 138 -10 2 -17 1 -17 -2z"/>
<path d="M5672 4820 c-1 -36 3 -74 7 -85 14 -36 19 56 5 105 l-12 45 0 -65z"/>
<path d="M536 4853 c-4 -9 -3 -20 1 -24 24 -22 342 -216 347 -212 6 6 -322
253 -335 253 -4 0 -10 -8 -13 -17z"/>
<path d="M6200 4820 c-23 -48 -23 -83 0 -41 16 31 28 26 36 -14 3 -19 10 -38
15 -41 8 -4 4 40 -7 74 -2 7 8 17 21 22 14 5 25 12 25 16 0 3 -6 4 -12 1 -55
-20 -59 -20 -52 7 10 40 0 31 -26 -24z"/>
<path d="M1035 4850 c-7 -11 23 -60 36 -60 12 0 11 27 -1 51 -12 21 -25 25
-35 9z"/>
<path d="M1264 4811 c-103 -31 -156 -59 -236 -127 -124 -103 -207 -255 -208
-374 0 -45 18 -146 47 -266 4 -19 -6 -27 -64 -58 -37 -20 -78 -44 -91 -54
l-23 -18 97 -229 c119 -283 129 -309 170 -415 18 -49 38 -86 47 -88 14 -3 255
98 602 253 83 37 223 96 312 133 89 36 161 67 159 69 -1 2 -22 -4 -46 -12 -48
-17 -60 -18 -60 -7 0 4 16 14 36 21 43 15 40 34 -7 42 -55 8 -62 16 -56 65 3
28 1 41 -6 37 -5 -3 -8 0 -5 8 8 26 63 22 97 -7 l32 -27 -7 28 c-8 32 12 51
35 32 12 -10 13 -4 8 45 -4 31 -12 69 -19 85 -18 46 -19 63 -3 86 8 12 15 31
15 44 0 12 4 24 9 27 5 3 11 14 13 23 4 16 -2 18 -52 15 -53 -3 -59 -1 -94 32
-21 19 -35 28 -32 19 4 -8 1 -23 -6 -32 -12 -14 -11 -14 5 -2 9 7 17 9 17 3 0
-12 -26 -23 -34 -15 -3 4 -6 20 -6 37 0 24 -3 27 -10 16 -8 -12 -10 -9 -10 13
0 24 5 29 27 26 3 0 16 19 27 43 15 30 33 49 59 61 40 20 46 31 22 41 -8 3
-15 2 -15 -3 0 -5 -9 -11 -19 -14 -17 -4 -18 -2 -10 20 7 20 6 24 -4 20 -8 -3
-20 3 -28 14 -7 10 -24 19 -38 19 -13 0 -21 3 -18 6 3 4 -3 18 -14 33 l-21 26
37 15 c20 9 33 19 28 24 -4 5 -3 6 3 3 6 -4 9 -17 7 -30 -4 -19 4 -31 39 -58
23 -18 46 -37 49 -42 4 -5 31 -6 60 -2 41 5 51 4 43 -4 -6 -7 -21 -13 -32 -14
-12 -1 -18 -5 -13 -10 9 -9 101 11 101 22 0 3 -21 25 -47 49 -43 38 -52 42
-85 37 -30 -4 -39 -1 -48 14 -15 29 -117 76 -133 62 -19 -15 -27 -4 -27 39 0
29 -8 43 -42 76 -24 23 -61 52 -83 65 -158 95 -282 112 -451 60z m375 -173
c-24 -19 -24 -19 -1 -13 25 7 31 -12 7 -21 -8 -4 -15 -10 -15 -15 0 -5 11 -4
25 1 18 7 25 6 25 -3 0 -7 -13 -18 -30 -24 -33 -13 -41 -7 -58 45 -11 31 -10
33 21 46 42 17 56 8 26 -16z m-61 -44 c9 -31 8 -38 -9 -55 -22 -22 -30 -23
-50 -6 -19 15 -40 63 -32 71 12 12 21 5 32 -24 11 -32 48 -44 38 -12 -19 59
-19 62 -5 62 8 0 20 -16 26 -36z m-101 -28 c4 -6 8 -28 8 -48 1 -36 -1 -38
-30 -38 -61 0 -89 47 -51 85 24 24 59 25 73 1z m-117 -25 c0 -5 -10 -16 -22
-25 l-23 -16 28 6 c17 4 27 2 27 -5 0 -6 -7 -11 -15 -11 -8 0 -15 -5 -15 -10
0 -6 11 -8 25 -4 36 9 31 -12 -6 -25 -18 -6 -33 -11 -34 -11 -4 0 -26 82 -23
84 10 8 44 25 51 26 4 0 7 -4 7 -9z m479 -32 l-23 -17 25 -4 c33 -4 34 -42 0
-46 -26 -4 -41 12 -41 45 0 22 32 48 44 36 3 -3 6 2 7 13 0 13 2 14 6 5 3 -8
-5 -22 -18 -32z m-553 -35 c17 -36 17 -37 -5 -55 -30 -25 -40 -24 -50 4 -22
58 -22 64 1 75 34 16 36 15 54 -24z m-88 -34 c2 -14 8 -30 13 -37 13 -15 -3
-24 -21 -12 -21 13 -30 11 -24 -5 3 -8 1 -17 -5 -21 -6 -3 -15 4 -20 17 -22
59 -22 65 1 76 34 16 53 10 56 -18z m-68 -83 c0 -5 -11 -6 -25 -3 -18 5 -27 1
-35 -14 -18 -33 -28 -23 -23 23 8 72 10 74 48 37 19 -19 35 -38 35 -43z m814
55 c3 -4 -8 -13 -25 -19 -24 -9 -29 -9 -29 4 0 9 6 13 15 9 8 -3 15 -1 15 4 0
12 17 13 24 2z m-925 -54 c13 -29 13 -33 -9 -50 -30 -24 -37 -23 -55 12 -26
50 -18 67 30 69 13 1 25 -10 34 -31z m835 17 c-4 -8 -8 -15 -10 -15 -2 0 -4 7
-4 15 0 8 4 15 10 15 5 0 7 -7 4 -15z m100 -11 c3 -8 2 -12 -4 -9 -6 3 -10 10
-10 16 0 14 7 11 14 -7z m-42 -7 c-12 -7 -19 -17 -15 -23 4 -5 4 -6 -1 -2 -5
4 -15 3 -23 -3 -7 -6 -13 -8 -13 -4 0 4 -7 2 -15 -5 -12 -10 -15 -10 -15 2 0
7 19 21 43 30 52 19 70 22 39 5z m-102 -92 c0 -7 -9 -20 -20 -30 -16 -14 -23
-15 -34 -6 -20 17 -18 69 3 74 18 4 51 -20 51 -38z m-292 -6 c-20 -13 -48 -11
-48 4 0 20 54 37 58 19 2 -8 -2 -18 -10 -23z m162 15 c0 -27 -20 -54 -35 -48
-18 7 -20 50 -2 57 24 10 37 7 37 -9z m-219 -73 c8 -42 6 -62 -4 -58 -7 2 -12
10 -12 18 0 18 -20 39 -37 39 -10 0 -10 2 1 9 14 9 50 4 52 -8z m-59 -28 c20
-18 25 -47 6 -40 -7 2 -12 10 -10 16 1 6 -5 14 -13 17 -8 4 -15 10 -15 15 0
14 11 11 32 -8z m254 -10 c-3 -8 -6 -21 -6 -29 0 -8 -7 -14 -16 -14 -10 0 -14
6 -11 14 4 11 -2 12 -29 6 -19 -4 -36 -4 -39 0 -9 14 26 41 45 35 10 -3 21 -1
24 4 10 15 38 1 32 -16z m229 -49 c6 -11 16 -19 23 -16 20 6 14 -33 -8 -53
-19 -18 -20 -17 -20 3 0 27 -10 53 -19 48 -14 -9 -34 12 -27 29 8 22 38 15 51
-11z m-715 -37 c0 -21 -12 -28 -27 -16 -19 16 -16 29 7 29 11 0 20 -6 20 -13z
m120 -33 c0 -8 -4 -12 -10 -9 -5 3 -10 10 -10 16 0 5 5 9 10 9 6 0 10 -7 10
-16z m621 -68 c-13 -32 -31 -35 -23 -3 5 20 22 40 29 33 2 -2 -1 -15 -6 -30z
m-281 -12 c0 -8 -3 -14 -7 -14 -5 0 -18 -3 -30 -6 -25 -7 -32 13 -12 33 14 14
49 5 49 -13z m-424 2 c14 4 16 3 5 -4 -8 -6 -10 -15 -6 -22 6 -9 4 -11 -5 -5
-10 6 -12 4 -6 -11 5 -13 4 -16 -3 -9 -5 6 -13 24 -16 40 -4 19 -3 25 2 17 6
-7 18 -10 29 -6z m645 -19 c-6 -6 -11 -19 -11 -29 0 -10 -4 -18 -9 -18 -4 0
-8 13 -7 30 1 17 7 30 14 30 6 0 12 6 13 13 0 9 2 8 6 -1 3 -8 0 -19 -6 -25z
m-785 -4 c-10 -10 -19 5 -10 18 6 11 8 11 12 0 2 -7 1 -15 -2 -18z m324 -28
c0 -9 -6 -12 -15 -9 -8 4 -12 10 -9 15 8 14 24 10 24 -6z m330 12 c0 -9 -39
-47 -48 -47 -10 0 -22 23 -22 41 0 5 16 9 35 9 19 0 35 -2 35 -3z m-400 -28
c0 -5 -7 -9 -15 -9 -15 0 -20 12 -9 23 8 8 24 -1 24 -14z m219 2 c15 -15 16
-22 6 -41 l-12 -23 -22 22 c-24 24 -28 61 -6 61 8 0 23 -8 34 -19z m-289 -87
c0 -3 -7 -12 -16 -21 -12 -12 -18 -13 -27 -4 -9 9 -8 14 3 21 17 11 40 13 40
4z m184 -39 c3 -8 1 -15 -5 -15 -5 0 -7 -11 -3 -25 3 -14 2 -25 -2 -25 -17 1
-43 27 -41 41 6 37 39 53 51 24z m246 1 c0 -19 -25 -27 -39 -13 -18 18 -13 27
14 27 15 0 25 -6 25 -14z m230 -55 c0 -15 -9 -36 -19 -45 -18 -17 -19 -17 -24
1 -4 16 -6 15 -12 -4 -9 -27 -27 -29 -51 -5 -17 16 -16 17 14 20 18 2 32 8 32
14 0 17 41 58 51 52 5 -3 9 -18 9 -33z m-140 -47 c0 -8 -4 -13 -9 -9 -5 3 -13
1 -16 -5 -5 -8 -12 -7 -23 2 -13 11 -15 11 -10 -4 4 -10 1 -19 -8 -22 -8 -3
-14 1 -14 9 0 8 -1 18 -2 22 -2 3 4 7 14 9 9 1 24 7 34 12 22 12 34 7 34 -14z
m-480 -4 c0 -5 -2 -10 -4 -10 -3 0 -8 5 -11 10 -3 6 -1 10 4 10 6 0 11 -4 11
-10z m387 -27 c2 -6 -3 -13 -12 -16 -10 -5 -15 0 -15 14 0 21 21 22 27 2z
m-33 -34 c-3 -5 0 -9 6 -9 6 0 9 -4 6 -9 -4 -5 -2 -11 3 -13 4 -1 5 -12 1 -23
-7 -18 -9 -17 -20 10 -7 17 -16 38 -21 48 -14 26 1 44 17 22 7 -10 11 -22 8
-26z m131 31 c-3 -5 -2 -10 4 -10 6 0 7 -7 4 -17 -4 -11 -3 -14 5 -9 7 4 12 3
12 -2 0 -9 -40 -25 -65 -26 -5 -1 -13 -5 -17 -11 -5 -6 -8 -5 -8 3 0 6 -4 12
-10 12 -5 0 -7 -7 -4 -15 4 -8 2 -15 -3 -15 -5 0 -14 13 -20 29 -10 28 -9 30
28 44 34 13 37 13 32 -1 -5 -11 -3 -13 7 -7 10 6 12 4 7 -8 -3 -10 -2 -17 4
-17 7 0 8 12 4 30 -5 24 -3 30 10 30 9 0 13 -4 10 -10z m-315 -180 c0 -4 -9
-15 -21 -26 -17 -16 -22 -16 -29 -4 -13 20 -13 50 0 50 5 0 14 -8 19 -17 10
-16 10 -16 11 3 0 11 -3 24 -7 30 -5 5 0 1 10 -9 9 -11 17 -23 17 -27z m-79
10 c3 -20 4 -25 12 -37 5 -9 2 -14 -10 -15 -33 -2 -38 -3 -50 -11 -7 -4 -16 0
-22 10 -14 25 -25 9 -11 -16 7 -14 7 -21 0 -21 -6 0 -15 12 -20 26 -12 30 -13
40 -3 31 3 -4 13 -2 20 5 11 9 17 9 24 -3 7 -11 9 -9 9 9 0 13 4 21 9 17 5 -3
12 -1 16 5 8 13 25 13 26 0z m-128 -77 c3 -16 5 -29 4 -29 -1 -1 -13 -5 -26
-9 -20 -6 -23 -4 -18 9 4 10 3 15 -3 11 -6 -3 -10 3 -10 14 0 12 5 21 11 21 5
0 8 -4 5 -9 -3 -5 1 -12 10 -15 13 -5 15 -2 11 14 -3 11 -2 20 3 20 4 0 10
-12 13 -27z m-123 -72 c-1 -13 -3 -13 -15 3 -19 26 -19 42 0 26 8 -7 15 -20
15 -29z m-50 -13 c0 -13 -23 -5 -28 10 -2 7 2 10 12 6 9 -3 16 -11 16 -16z"/>
<path d="M1414 4545 c-4 -9 -2 -21 4 -27 15 -15 44 -1 40 19 -4 23 -36 29 -44
8z"/>
<path d="M1830 4470 c0 -5 5 -10 11 -10 5 0 7 5 4 10 -3 6 -8 10 -11 10 -2 0
-4 -4 -4 -10z"/>
<path d="M1247 4483 c-4 -3 -7 -11 -7 -17 0 -6 5 -5 12 2 6 6 9 14 7 17 -3 3
-9 2 -12 -2z"/>
<path d="M1250 4440 c0 -5 7 -10 15 -10 8 0 15 5 15 10 0 6 -7 10 -15 10 -8 0
-15 -4 -15 -10z"/>
<path d="M1160 4440 c-8 -5 -11 -12 -7 -16 4 -4 13 -2 19 4 15 15 7 24 -12 12z"/>
<path d="M970 4359 c0 -5 5 -7 10 -4 6 3 10 8 10 11 0 2 -4 4 -10 4 -5 0 -10
-5 -10 -11z"/>
<path d="M980 4325 c0 -9 6 -12 15 -9 8 4 12 10 9 15 -8 14 -24 10 -24 -6z"/>
<path d="M1510 3870 c0 -5 5 -10 10 -10 6 0 10 5 10 10 0 6 -4 10 -10 10 -5 0
-10 -4 -10 -10z"/>
<path d="M1350 3451 c0 -6 5 -13 10 -16 6 -3 10 1 10 9 0 9 -4 16 -10 16 -5 0
-10 -4 -10 -9z"/>
<path d="M862 4817 c-11 -13 0 -29 61 -86 56 -53 56 -29 -1 38 -37 45 -53 57
-60 48z"/>
<path d="M1936 4779 c-14 -17 -23 -35 -20 -41 9 -14 64 41 57 58 -7 19 -7 19
-37 -17z"/>
<path d="M5231 4800 c0 -8 4 -22 9 -30 12 -18 12 -2 0 25 -6 13 -9 15 -9 5z"/>
<path d="M6333 4803 c-19 -7 -16 -34 8 -59 27 -29 19 -60 -11 -44 -11 6 -20
17 -20 25 0 8 -4 15 -10 15 -15 0 -12 -15 8 -40 14 -18 25 -22 45 -16 34 8 35
35 2 66 -14 13 -25 27 -25 32 0 15 43 8 56 -9 7 -10 14 -13 14 -6 0 6 -10 19
-22 27 -24 17 -26 17 -45 9z"/>
<path d="M5421 4724 c0 -11 3 -14 6 -6 3 7 2 16 -1 19 -3 4 -6 -2 -5 -13z"/>
<path d="M2118 4700 c-37 -20 -54 -37 -45 -46 8 -9 97 40 97 53 0 17 -8 16
-52 -7z"/>
<path d="M5118 4664 c-4 -4 0 -13 10 -21 10 -9 11 -12 2 -7 -8 4 5 -13 30 -39
24 -25 45 -45 47 -43 7 7 -10 35 -18 30 -5 -3 -9 0 -9 6 0 6 -5 16 -10 23 -6
7 -18 22 -28 35 -9 13 -21 20 -24 16z"/>
<path d="M5580 4648 c-25 -5 -50 -10 -57 -10 -7 -1 -10 -6 -6 -11 3 -5 -5 -7
-18 -3 -18 4 -17 3 5 -8 30 -14 22 -30 -11 -20 -16 5 -16 4 -1 -5 17 -12 48
-5 48 10 0 5 13 9 29 9 31 0 57 -22 46 -40 -3 -5 2 -10 12 -10 22 -1 56 -70
47 -94 -9 -23 -36 -16 -50 12 -6 12 -14 25 -18 27 -3 3 -4 2 -1 -2 9 -12 -16
-32 -33 -26 -13 4 -14 3 -3 -5 8 -6 11 -19 7 -33 -6 -23 -6 -23 6 1 7 14 13
26 14 28 0 1 9 0 18 -4 9 -3 13 -10 10 -15 -3 -5 2 -9 10 -9 8 0 18 -5 22 -11
4 -8 -1 -9 -16 -4 -15 5 -20 4 -16 -4 4 -6 13 -11 21 -11 7 0 15 -7 19 -15 3
-8 17 -15 31 -15 15 0 24 4 20 10 -3 6 1 10 9 10 9 0 16 5 16 10 0 16 -30 12
-36 -5 -4 -8 -12 -15 -20 -15 -16 0 -19 16 -4 25 6 3 10 12 10 18 0 7 -4 6
-10 -3 -9 -13 -10 -13 -10 0 0 24 16 44 24 31 4 -6 14 -11 22 -11 8 0 12 4 9
10 -3 5 4 20 15 32 31 33 57 91 56 124 -1 24 -7 30 -31 35 -44 10 -134 8 -185
-3z"/>
<path d="M1970 4620 c-19 -11 -30 -19 -23 -20 18 0 63 22 63 32 0 10 1 11 -40
-12z"/>
<path d="M6515 4600 c-30 -23 -34 -30 -18 -30 25 0 56 23 59 44 3 21 3 21 -41
-14z m34 7 c-2 -1 -13 -9 -24 -17 -19 -14 -19 -14 -6 3 7 9 18 17 24 17 6 0 8
-1 6 -3z"/>
<path d="M5388 4589 c-42 -22 -52 -35 -14 -18 19 9 29 8 48 -6 l23 -17 -22 5
c-24 5 -33 -8 -10 -16 9 -3 9 -7 -1 -20 -8 -9 -12 -22 -9 -29 4 -8 6 -7 6 5 1
9 8 17 16 17 8 0 12 6 10 13 -3 6 10 20 27 31 30 17 31 19 13 27 -29 11 -42
10 -25 -2 12 -9 12 -10 -3 -5 -10 3 -24 6 -30 6 -7 1 -1 7 13 15 39 22 0 17
-42 -6z"/>
<path d="M627 4585 c-7 -17 -9 -16 93 -60 91 -39 90 -39 90 -26 0 8 -161 101
-174 101 -2 0 -6 -7 -9 -15z"/>
<path d="M2162 4540 l-44 -20 35 -42 c38 -47 55 -88 37 -88 -6 0 -27 -7 -47
-15 -33 -14 -35 -17 -21 -33 29 -34 39 -76 33 -147 -3 -37 -1 -91 5 -119 8
-43 7 -61 -10 -111 -15 -47 -19 -52 -14 -21 4 28 2 37 -8 34 -16 -6 -25 -42
-20 -86 4 -33 5 -34 43 -29 27 4 39 1 43 -10 9 -22 9 -22 -28 -29 -19 -3 -37
-12 -40 -20 -6 -16 5 -19 19 -5 16 15 59 25 51 12 -4 -6 -3 -11 2 -11 5 0 8
-10 7 -22 -2 -22 -51 -52 -67 -41 -5 2 -8 -1 -8 -8 0 -8 -4 -8 -15 1 -12 10
-15 10 -15 -4 0 -9 -4 -16 -10 -16 -5 0 -10 5 -10 10 0 6 -5 10 -11 10 -5 0
-7 -4 -4 -10 3 -5 1 -10 -5 -10 -6 0 -8 -5 -5 -10 4 -6 10 -8 15 -5 5 3 12 0
15 -6 4 -5 13 -8 21 -5 20 8 17 -21 -3 -34 -16 -10 -16 -11 2 -5 11 4 62 22
113 42 109 41 155 63 130 63 -9 0 -18 3 -21 8 -2 4 -3 2 -1 -4 1 -6 -15 -19
-37 -27 l-39 -15 0 29 c0 16 -5 29 -11 29 -6 0 -9 8 -7 18 3 10 -1 23 -9 30
-17 16 -17 72 0 72 7 0 24 11 39 24 14 14 28 23 31 20 2 -3 20 5 40 16 l36 21
11 -22 c9 -16 9 -23 1 -29 -8 -4 -11 -32 -9 -78 2 -55 6 -68 15 -60 9 7 13 7
13 0 0 -6 -8 -16 -17 -21 -35 -20 -1 -10 62 18 l65 30 -20 53 c-12 29 -57 150
-101 268 -128 346 -162 430 -173 430 -6 0 -30 -9 -54 -20z m105 -337 c-3 -10
-5 -4 -5 12 0 17 2 24 5 18 2 -7 2 -21 0 -30z m23 -62 c0 -11 -3 -11 -14 -1
-8 6 -12 18 -9 27 5 12 7 12 14 1 5 -7 9 -19 9 -27z m-10 -80 c14 -26 13 -31
-5 -31 -13 0 -14 -4 -4 -21 8 -15 14 -18 22 -10 16 16 37 13 37 -5 0 -8 -4
-13 -9 -9 -6 3 -13 -1 -18 -9 -5 -8 -14 -12 -20 -8 -13 8 -73 118 -73 133 0
15 58 -19 70 -40z"/>
<path d="M4971 4557 c2 -1 13 -9 24 -17 19 -14 19 -14 6 3 -7 9 -18 17 -24 17
-6 0 -8 -1 -6 -3z"/>
<path d="M5294 4532 c-52 -38 -115 -108 -144 -160 -13 -23 -30 -42 -37 -42 -7
0 -13 -4 -13 -10 0 -5 -4 -10 -10 -10 -5 0 -10 5 -10 11 0 14 -30 38 -47 39
-7 0 -12 -5 -10 -12 1 -6 -7 -13 -18 -15 -17 -3 -18 -2 -5 7 12 9 10 11 -13 7
-18 -3 -26 0 -24 7 2 6 13 11 25 10 12 0 19 3 16 8 -3 5 -19 6 -34 3 -27 -6
-44 6 -45 29 0 5 -7 11 -15 13 -13 4 -13 3 -1 -5 10 -7 -1 -10 -37 -8 -29 1
-52 -2 -52 -7 0 -6 -7 -18 -15 -27 -9 -10 -17 -35 -18 -56 -2 -31 -6 -38 -20
-36 -34 6 -72 -137 -44 -165 5 -4 5 1 1 11 -6 15 -4 17 6 11 10 -6 12 -4 7 8
-7 20 2 21 24 4 19 -14 21 -47 3 -47 -8 0 -11 -6 -8 -13 2 -7 -7 -26 -21 -41
-14 -15 -25 -31 -25 -37 0 -5 -4 -9 -9 -9 -12 0 3 56 21 78 10 12 10 14 1 8
-8 -4 -13 -1 -13 9 0 9 -4 14 -9 11 -5 -4 -12 0 -15 6 -3 7 -3 2 0 -11 3 -13
2 -21 -3 -18 -5 3 -7 -9 -5 -28 2 -18 -1 -36 -8 -40 -9 -6 -11 1 -6 26 l6 34
-15 -33 c-9 -18 -13 -37 -10 -42 3 -6 -1 -7 -9 -4 -20 8 -60 -70 -52 -101 7
-27 -2 -57 -15 -50 -12 8 -22 -39 -14 -67 5 -21 5 -21 -8 -6 -12 15 -16 12
-40 -28 -21 -36 -25 -49 -17 -65 6 -10 14 -19 19 -19 4 0 24 -26 44 -58 32
-51 40 -59 67 -59 18 0 35 -5 39 -11 4 -6 32 -23 64 -37 31 -15 59 -31 62 -36
4 -5 10 -7 14 -5 4 3 23 -7 42 -23 30 -24 481 -253 552 -280 16 -6 25 -15 22
-21 -3 -5 -1 -10 6 -10 10 0 10 -3 1 -12 -21 -21 -14 -25 49 -26 38 0 70 -7
85 -17 19 -12 29 -14 39 -5 9 8 15 8 20 0 4 -6 14 -10 23 -9 10 1 19 0 22 -1
16 -6 63 -12 125 -14 39 -2 93 -11 120 -20 30 -9 51 -12 53 -6 2 6 11 10 20
10 15 0 15 2 2 10 -8 5 -10 10 -4 10 14 0 60 93 62 124 0 5 5 12 11 15 13 8
51 97 51 120 0 10 11 50 24 89 14 40 22 72 19 72 -3 0 1 8 9 18 9 9 21 40 28
69 10 45 20 59 77 109 l65 57 -55 30 -54 30 1 72 c1 50 -4 77 -14 90 -8 11
-10 16 -4 12 10 -6 34 73 34 111 -1 16 -2 15 -14 0 -7 -10 -16 -18 -19 -18 -3
0 -8 8 -10 18 -3 10 -5 6 -6 -11 -1 -16 -5 -26 -11 -22 -6 4 -10 -5 -8 -24 1
-17 6 -31 10 -31 4 0 8 -4 8 -9 0 -6 -14 -5 -36 0 -40 12 -88 0 -128 -32 l-26
-20 -82 39 c-46 21 -98 45 -115 52 -18 7 -33 15 -33 19 0 3 -25 17 -55 30 -30
14 -52 28 -49 33 3 4 -3 8 -13 8 -10 1 -38 12 -63 25 -36 19 -40 24 -22 25 13
0 20 4 17 10 -3 6 -1 10 6 10 6 0 9 -8 6 -19 -4 -15 3 -21 35 -29 30 -8 38 -8
29 1 -17 17 -13 27 12 28 21 0 21 1 2 9 -37 14 -21 80 25 100 22 9 23 10 3 6
-13 -2 -23 -2 -23 0 0 3 10 9 23 15 21 9 20 9 -4 4 -17 -3 -31 1 -39 10 -14
17 -40 20 -40 5 0 -5 8 -6 18 -3 15 6 15 5 3 -10 -14 -18 -36 -24 -26 -7 3 6
-3 10 -14 10 -11 0 -22 4 -25 9 -4 5 4 7 16 3 22 -5 23 -5 5 15 -10 12 -28 20
-41 19 -19 -2 -22 1 -18 21 5 27 -15 31 -32 7 -7 -8 -27 -16 -46 -16 -19 0
-41 -6 -49 -12 -12 -9 -13 -8 -8 7 4 10 7 21 7 23 0 2 7 4 15 4 9 0 12 6 9 15
-4 8 -14 15 -23 15 -9 0 -23 5 -31 11 -13 9 -13 10 1 6 13 -4 15 -1 11 15 -4
15 -7 17 -14 6 -5 -8 -6 -2 -2 17 4 17 11 36 17 43 9 12 8 13 -14 16 -7 0 -15
10 -19 20 -4 14 -9 16 -14 8 -4 -7 -12 -12 -18 -12 -6 0 -3 9 7 20 25 28 15
25 -31 -8z m66 -66 c0 -7 -3 -7 -8 -1 -11 15 -62 36 -73 30 -5 -3 -6 0 -3 8 4
12 12 11 44 -6 22 -10 40 -24 40 -31z m-34 -51 c1 -9 -6 -15 -17 -15 -22 0
-24 11 -7 28 13 13 21 9 24 -13z m-46 -37 c0 -19 -2 -20 -10 -8 -13 19 -13 30
0 30 6 0 10 -10 10 -22z m-406 -32 c-3 -14 -9 -26 -13 -27 -22 -4 -74 -6 -65
-2 7 2 10 13 7 23 -3 11 -1 20 5 20 5 0 12 -9 15 -20 7 -29 23 -25 38 9 16 36
23 34 13 -3z m493 12 c-3 -8 -6 -5 -6 6 -1 11 2 17 5 13 3 -3 4 -12 1 -19z
m-307 -28 c0 -5 -8 -10 -17 -10 -15 0 -16 2 -3 10 19 12 20 12 20 0z m131 -18
c-7 -2 -18 1 -23 6 -8 8 -4 9 13 5 13 -4 18 -8 10 -11z m82 -6 c4 -10 0 -12
-15 -8 -15 4 -17 7 -6 13 17 11 15 11 21 -5z m71 8 c9 -3 16 -11 16 -16 0 -7
-4 -7 -12 0 -7 6 -26 12 -43 15 -29 4 -29 4 -3 6 14 0 33 -2 42 -5z m-499 -24
c4 -6 -6 -10 -22 -11 -27 0 -27 -1 -5 -9 12 -5 22 -14 22 -20 0 -6 -8 -6 -22
2 -13 7 -24 13 -26 14 -1 1 0 9 4 18 7 18 39 22 49 6z m421 -10 c27 -12 58
-26 69 -32 10 -6 44 -24 74 -39 31 -16 50 -29 43 -29 -7 0 -57 23 -111 50 -54
28 -103 50 -109 50 -6 0 -14 5 -17 10 -8 14 -5 13 51 -10z m51 14 c-3 -3 -12
-4 -19 -1 -8 3 -5 6 6 6 11 1 17 -2 13 -5z m-187 -14 c0 -5 -7 -7 -15 -4 -8 4
-15 8 -15 10 0 2 7 4 15 4 8 0 15 -4 15 -10z m-15 -30 c3 -5 -1 -10 -9 -10 -9
0 -16 5 -16 10 0 6 4 10 9 10 6 0 13 -4 16 -10z m61 -2 c5 -8 2 -9 -9 -5 -10
3 -17 2 -17 -4 0 -6 -5 -7 -10 -4 -6 4 -8 11 -5 16 8 13 32 11 41 -3z m259
-28 c8 -13 -5 -13 -25 0 -13 8 -13 10 2 10 9 0 20 -4 23 -10z m-327 -19 c3 -8
-1 -12 -9 -9 -7 2 -15 10 -17 17 -3 8 1 12 9 9 7 -2 15 -10 17 -17z m392 -25
c0 -11 -19 -15 -25 -6 -3 5 1 10 9 10 9 0 16 -2 16 -4z m-35 -29 c21 -16 13
-37 -14 -37 -25 0 -57 36 -39 43 22 9 33 8 53 -6z m-365 -42 c0 -28 -10 -38
-25 -25 -6 5 -10 23 -7 40 3 25 7 28 18 19 8 -6 14 -21 14 -34z m273 -30 c11
-10 15 -33 14 -72 -2 -51 -5 -58 -22 -58 -14 0 -29 16 -47 50 -15 28 -28 52
-28 55 0 6 52 39 62 40 4 0 13 -7 21 -15z m-153 -90 c0 -8 -7 -15 -15 -15 -16
0 -20 12 -8 23 11 12 23 8 23 -8z m70 -51 c0 -8 -4 -12 -10 -9 -5 3 -10 10
-10 16 0 5 5 9 10 9 6 0 10 -7 10 -16z m463 -26 c12 -21 17 -44 13 -54 -6 -16
-8 -16 -16 -4 -6 8 -10 11 -10 5 -1 -5 -5 1 -11 13 -11 28 -35 24 -32 -6 1
-11 -4 -23 -12 -26 -11 -4 -16 5 -21 32 -8 52 -8 53 18 67 34 20 50 14 71 -27z
m-149 19 c15 -11 16 -17 5 -39 -16 -37 -39 -43 -58 -16 -9 13 -16 26 -15 31 1
4 2 14 3 22 1 18 41 20 65 2z m-159 -27 c21 -41 19 -47 -15 -52 -23 -4 -30 -1
-26 9 3 7 -4 23 -15 34 -23 23 -17 39 16 39 17 0 29 -9 40 -30z m695 20 c0 -5
-7 -10 -16 -10 -13 0 -14 -3 -5 -14 13 -16 4 -46 -14 -46 -7 0 -18 7 -25 15
-10 12 -9 20 4 40 16 24 56 35 56 15z m-202 -24 c20 -20 18 -72 -3 -93 -16
-16 -16 -17 4 -25 12 -4 24 -16 27 -25 3 -10 10 -26 15 -36 12 -23 -9 -57 -22
-35 -6 9 -13 8 -28 -6 -12 -11 -21 -14 -21 -8 0 6 -9 14 -20 17 -13 4 -20 15
-20 31 0 29 -16 32 -23 3 -5 -19 -7 -20 -30 -4 -17 11 -27 13 -32 6 -10 -17
-23 -13 -35 10 -14 25 -6 36 14 20 11 -9 16 -6 24 19 13 36 25 38 46 8 22 -32
30 -15 12 24 -16 34 -15 62 3 97 8 15 19 19 43 16 17 -3 38 -11 46 -19z m-864
-22 c3 -8 2 -12 -4 -9 -6 3 -10 10 -10 16 0 14 7 11 14 -7z m1096 -39 c-25
-39 -46 -40 -42 0 5 43 19 57 42 42 19 -11 19 -12 0 -42z m-1550 21 c0 -3 -4
-8 -10 -11 -5 -3 -10 -1 -10 4 0 6 5 11 10 11 6 0 10 -2 10 -4z m619 -28 c-1
-13 -5 -34 -9 -48 -8 -24 -8 -24 -9 -2 -1 12 -5 22 -10 22 -12 0 -23 29 -15
41 3 5 14 9 25 9 13 0 19 -7 18 -22z m-69 -52 c-7 -7 -10 1 -9 25 0 32 1 33
10 10 6 -16 6 -28 -1 -35z m356 19 c29 -29 29 -68 0 -73 -16 -3 -17 1 -11 37
5 28 3 41 -5 41 -7 0 -9 -8 -5 -20 4 -14 2 -20 -9 -20 -18 0 -30 17 -17 25 6
3 8 12 4 20 -8 23 15 18 43 -10z m543 0 c3 -17 2 -17 -13 -3 -19 20 -21 31 -3
26 6 -3 14 -13 16 -23z m-1366 -24 c36 -22 48 -41 25 -41 -6 0 -9 -3 -5 -6 3
-4 0 -13 -8 -20 -12 -12 -20 -11 -55 7 -22 12 -39 24 -37 28 2 3 9 21 16 39 8
19 16 30 20 25 3 -5 23 -19 44 -32z m927 20 c0 -11 -4 -22 -8 -25 -14 -9 -35
12 -29 28 9 23 37 20 37 -3z m413 -11 c8 0 8 -3 1 -10 -12 -12 -44 -3 -44 12
0 6 7 7 16 4 9 -3 21 -6 27 -6z m57 0 c0 -5 -2 -10 -4 -10 -3 0 -8 5 -11 10
-3 6 -1 10 4 10 6 0 11 -4 11 -10z m-420 -10 c0 -5 -8 -10 -17 -10 -15 0 -16
2 -3 10 19 12 20 12 20 0z m-1148 -22 c-7 -7 -12 -8 -12 -2 0 6 3 14 7 17 3 4
9 5 12 2 2 -3 -1 -11 -7 -17z m307 -13 c16 -5 21 -4 17 4 -5 7 -1 9 8 5 9 -3
14 -10 11 -14 -3 -5 5 -6 17 -2 16 4 19 2 13 -8 -5 -8 -4 -11 3 -6 13 8 99
-36 119 -61 8 -10 12 -12 8 -6 -4 8 -1 11 9 7 8 -3 12 -12 9 -20 -3 -9 1 -14
11 -14 14 0 14 -2 4 -14 -7 -7 -18 -12 -24 -9 -7 2 -14 1 -17 -4 -3 -4 6 -9
19 -9 13 -1 24 3 24 9 0 6 9 -7 20 -28 11 -22 18 -46 15 -53 -3 -8 0 -10 6 -6
6 3 9 14 6 24 -3 11 1 21 8 24 16 6 25 -36 14 -57 -7 -11 0 -19 25 -31 19 -9
38 -16 43 -16 5 0 19 -13 31 -30 13 -16 29 -30 38 -30 8 0 13 -4 9 -10 -3 -5
8 -16 24 -25 47 -24 43 -30 -17 -29 -69 1 -185 53 -176 79 4 8 1 15 -6 15 -7
0 -3 9 10 20 13 11 18 20 12 20 -6 0 -13 -4 -17 -9 -9 -15 -58 -7 -62 9 -4 13
-3 13 6 0 5 -8 14 -11 18 -6 4 4 1 13 -8 20 -15 10 -15 15 -2 41 12 25 12 27
0 13 -16 -20 -42 -24 -52 -8 -4 6 -12 7 -18 3 -8 -5 -8 -2 1 9 10 13 9 15 -12
11 -18 -4 -26 0 -30 15 -5 14 -13 18 -26 15 -12 -3 -20 0 -20 6 0 7 -4 10 -9
6 -11 -6 -34 29 -25 38 3 3 7 13 8 24 2 10 10 17 19 15 8 -1 18 1 21 6 3 5 -5
8 -17 7 -12 -1 -28 -14 -37 -30 -20 -35 -36 -29 -32 13 3 23 0 32 -12 32 -21
0 -30 -18 -16 -35 13 -16 0 -27 -19 -15 -9 5 -12 17 -8 31 5 22 5 22 -7 7 -17
-23 -33 -23 -46 2 -7 12 -7 20 -1 20 5 0 12 9 16 19 5 18 8 19 40 5 41 -17 45
-17 45 -4 0 6 -8 10 -18 10 -10 0 -19 7 -19 15 0 9 4 11 11 6 6 -5 22 -12 35
-16z m1254 -89 c-1 -28 -11 -67 -25 -95 -20 -38 -29 -47 -55 -49 -22 -2 -35 3
-45 17 -8 12 -18 18 -21 14 -10 -10 -8 10 2 27 17 25 -1 33 -20 9 -10 -13 -19
-19 -19 -12 0 6 5 15 10 18 6 3 10 16 11 28 0 12 3 16 6 9 3 -8 13 0 27 20 24
36 80 69 111 65 17 -2 20 -9 18 -51z m-504 20 c9 -10 8 -15 -4 -20 -10 -4 -15
1 -15 14 0 24 4 25 19 6z m291 -6 c0 -5 -4 -10 -10 -10 -5 0 -10 5 -10 10 0 6
5 10 10 10 6 0 10 -4 10 -10z m-431 -26 c-15 -18 -22 -13 -13 10 3 9 10 13 16
10 5 -3 4 -12 -3 -20z m-45 -36 c-3 -4 -13 -2 -24 4 -15 10 -16 16 -8 32 10
19 11 19 23 -5 7 -13 11 -27 9 -31z m496 21 c0 -5 -4 -9 -10 -9 -5 0 -10 7
-10 16 0 8 5 12 10 9 6 -3 10 -10 10 -16z m-283 -31 c-3 -8 -6 -5 -6 6 -1 11
2 17 5 13 3 -3 4 -12 1 -19z m-506 -12 c5 3 9 1 9 -5 0 -5 -4 -13 -10 -16 -5
-3 -10 -4 -10 -1 0 2 -2 10 -3 18 -2 7 -2 10 0 5 3 -4 9 -5 14 -1z m139 -31
c0 -3 -18 4 -40 15 -22 11 -40 23 -40 25 0 3 18 -4 40 -15 22 -11 40 -23 40
-25z m-93 3 c-3 -8 -6 -5 -6 6 -1 11 2 17 5 13 3 -3 4 -12 1 -19z m191 -44
c18 -8 32 -20 32 -26 0 -6 3 -8 6 -5 4 3 16 1 28 -5 11 -7 26 -13 31 -13 6 -1
9 -7 7 -14 -1 -7 2 -10 8 -6 13 8 100 -41 100 -57 0 -10 -27 7 -41 26 -7 9
-40 -34 -34 -44 3 -4 -2 -13 -10 -20 -8 -7 -15 -21 -15 -31 0 -23 -12 -30 -30
-18 -12 7 -11 9 5 9 15 1 10 6 -18 21 -21 11 -42 17 -47 14 -5 -3 -7 4 -5 15
2 11 0 18 -6 15 -5 -4 -14 -3 -20 1 -8 4 -7 9 2 15 10 6 10 9 2 9 -6 0 -15 -4
-18 -10 -9 -15 -25 -12 -25 4 0 8 -3 16 -7 19 -5 2 -3 2 4 1 16 -4 22 17 12
44 -8 19 -3 72 6 72 1 0 16 -7 33 -16z m-178 -8 c0 -3 -4 -8 -10 -11 -5 -3
-10 -1 -10 4 0 6 5 11 10 11 6 0 10 -2 10 -4z m480 -26 c0 -5 -2 -10 -4 -10
-3 0 -8 5 -11 10 -3 6 -1 10 4 10 6 0 11 -4 11 -10z m130 -14 c0 -9 -39 -13
-51 -5 -10 6 -4 9 19 9 17 0 32 -2 32 -4z m-475 -34 c-3 -3 -11 0 -18 7 -9 10
-8 11 6 5 10 -3 15 -9 12 -12z m235 -57 c0 -8 5 -17 10 -20 6 -4 10 -3 9 2 -3
18 2 24 13 17 7 -4 23 -9 36 -10 37 -4 38 -12 9 -42 -36 -38 -24 -48 13 -11
16 16 36 29 46 29 24 0 54 -29 54 -52 0 -22 9 -23 24 -2 15 20 50 8 41 -15 -5
-12 -4 -13 6 -4 9 9 20 9 48 -3 20 -9 44 -17 55 -19 35 -8 76 -30 76 -42 0
-18 -39 -103 -47 -103 -14 0 -158 65 -161 73 -2 4 -8 5 -13 1 -5 -3 -9 5 -9
18 -1 20 -2 21 -10 6 -13 -21 -2 -51 16 -44 8 3 14 1 14 -4 0 -5 8 -7 18 -4
13 5 14 4 3 -4 -7 -5 -23 -7 -35 -5 -17 4 -18 3 -6 -6 11 -8 12 -11 2 -11 -7
0 -10 -4 -7 -10 3 -5 1 -10 -5 -10 -6 0 -13 7 -16 15 -4 8 -15 15 -25 15 -10
0 -19 5 -19 10 0 6 -11 10 -25 10 -13 0 -29 8 -35 18 -8 11 -13 13 -16 5 -4
-9 -18 -6 -50 9 -29 15 -40 25 -31 30 8 5 3 8 -13 8 -14 0 -32 5 -40 10 -11 7
-4 8 23 6 31 -3 36 -2 26 10 -8 10 -8 14 0 14 19 0 12 17 -9 23 -11 3 -20 13
-20 22 0 11 5 15 15 11 13 -5 13 -3 1 17 -18 28 -5 70 19 61 8 -3 15 -12 15
-19z m55 7 c-3 -3 -11 0 -18 7 -9 10 -8 11 6 5 10 -3 15 -9 12 -12z m-214 -74
c6 -13 8 -20 4 -16 -5 4 -15 2 -24 -5 -14 -10 -14 -10 -3 5 8 9 11 22 7 28 -3
5 -4 10 -1 10 3 0 11 -10 17 -22z m29 12 c0 -5 -5 -10 -11 -10 -5 0 -7 5 -4
10 3 6 8 10 11 10 2 0 4 -4 4 -10z m-90 -9 c0 -5 -9 -7 -20 -4 -11 3 -20 7
-20 9 0 2 9 4 20 4 11 0 20 -4 20 -9z"/>
<path d="M5310 4050 c0 -5 5 -10 10 -10 6 0 10 5 10 10 0 6 -4 10 -10 10 -5 0
-10 -4 -10 -10z"/>
<path d="M6151 3854 c0 -11 3 -14 6 -6 3 7 2 16 -1 19 -3 4 -6 -2 -5 -13z"/>
<path d="M5221 3814 c0 -11 3 -14 6 -6 3 7 2 16 -1 19 -3 4 -6 -2 -5 -13z"/>
<path d="M4950 3680 c0 -5 5 -10 10 -10 6 0 10 5 10 10 0 6 -4 10 -10 10 -5 0
-10 -4 -10 -10z"/>
<path d="M4969 3659 c-11 -7 -10 -9 5 -9 19 0 19 -1 -2 -20 -12 -12 -22 -24
-22 -27 0 -3 9 2 21 13 17 15 23 16 40 6 25 -16 24 -9 -4 22 -16 17 -27 22
-38 15z"/>
<path d="M5090 3460 c0 -5 5 -10 10 -10 6 0 10 5 10 10 0 6 -4 10 -10 10 -5 0
-10 -4 -10 -10z"/>
<path d="M6012 3658 c-18 -18 -15 -49 4 -41 13 5 15 2 9 -17 -5 -16 -4 -21 6
-18 8 3 14 14 13 26 0 11 3 20 7 19 4 -1 6 3 6 8 -1 6 -8 9 -15 9 -10 -2 -10
1 -1 12 15 18 -11 20 -29 2z"/>
<path d="M5991 3564 c6 -8 14 -12 17 -9 3 3 11 0 19 -6 8 -7 13 -8 13 -1 0 10
-22 22 -48 28 -10 2 -11 -1 -1 -12z"/>
<path d="M5321 3468 c0 -16 2 -18 6 -8 3 8 11 18 17 22 7 5 4 8 -6 8 -12 0
-18 -7 -17 -22z"/>
<path d="M5674 3284 c-2 -23 -1 -24 11 -7 7 10 11 21 9 25 -10 16 -19 7 -20
-18z"/>
<path d="M5558 3283 c7 -3 16 -2 19 1 4 3 -2 6 -13 5 -11 0 -14 -3 -6 -6z"/>
<path d="M5545 3240 c3 -5 8 -10 11 -10 2 0 4 5 4 10 0 6 -5 10 -11 10 -5 0
-7 -4 -4 -10z"/>
<path d="M5563 3223 c-30 -6 -37 -30 -10 -37 12 -3 23 -3 26 -1 2 3 -1 5 -7 5
-7 0 -12 5 -12 11 0 6 7 9 15 5 9 -3 15 0 15 9 0 8 -1 14 -2 14 -2 -1 -13 -4
-25 -6z"/>
<path d="M5603 3213 c1 -20 6 -23 47 -22 38 0 41 2 22 10 -13 5 -29 6 -34 2
-7 -4 -8 -1 -3 7 6 10 4 12 -8 7 -9 -3 -18 -1 -20 6 -3 7 -4 2 -4 -10z"/>
<path d="M5872 3204 c-7 -8 -8 -14 -3 -14 10 0 25 19 20 25 -2 1 -10 -3 -17
-11z"/>
<path d="M5689 3151 c4 -19 6 -21 9 -8 2 9 8 17 13 17 5 0 9 4 9 9 0 6 -8 9
-18 8 -14 -1 -17 -7 -13 -26z"/>
<path d="M5850 3171 c0 -6 5 -13 10 -16 6 -3 10 1 10 9 0 9 -4 16 -10 16 -5 0
-10 -4 -10 -9z"/>
<path d="M5360 4530 c0 -5 7 -10 15 -10 8 0 15 5 15 10 0 6 -7 10 -15 10 -8 0
-15 -4 -15 -10z"/>
<path d="M5035 4514 c23 -18 95 -56 95 -51 0 6 -100 67 -108 67 -4 0 2 -8 13
-16z"/>
<path d="M5453 4511 c3 -14 1 -31 -5 -38 -14 -18 0 -17 18 1 18 19 18 30 -3
47 -15 13 -16 11 -10 -10z"/>
<path d="M5514 4483 c3 -4 0 -13 -7 -22 -7 -9 -19 -29 -26 -45 l-12 -29 35 34
c41 40 48 60 23 64 -11 2 -16 1 -13 -2z m6 -37 c0 -3 -4 -8 -10 -11 -5 -3 -10
-1 -10 4 0 6 5 11 10 11 6 0 10 -2 10 -4z"/>
<path d="M512 4464 c2 -11 36 -25 113 -45 61 -16 120 -31 133 -35 12 -3 22 -2
22 4 0 6 -26 19 -57 31 -32 11 -83 29 -113 40 -68 25 -103 27 -98 5z"/>
<path d="M2922 4353 c-13 -70 -26 -136 -28 -145 -4 -14 7 -18 78 -24 96 -9
115 -8 145 12 32 20 40 61 20 96 -15 27 -15 30 3 48 26 26 25 62 -2 88 -30 27
-64 39 -135 47 l-58 7 -23 -129z m149 57 c42 -23 12 -60 -42 -52 -21 3 -29 9
-25 19 3 8 6 21 6 29 0 16 33 18 61 4z m-13 -116 c17 -5 15 -41 -4 -52 -8 -4
-29 -6 -45 -4 -26 4 -30 8 -25 26 3 11 6 27 6 34 0 11 22 10 68 -4z"/>
<path d="M4847 4429 c4 -13 8 -18 11 -10 2 7 -1 18 -6 23 -8 8 -9 4 -5 -13z"/>
<path d="M3216 4425 c-11 -30 -6 -45 13 -45 11 0 22 -3 25 -8 2 -4 -3 -45 -11
-90 -12 -66 -19 -82 -32 -80 -23 4 -41 -10 -41 -31 0 -15 14 -20 81 -29 45 -7
85 -9 90 -6 5 3 9 16 9 30 0 19 -5 24 -25 24 -28 0 -28 -1 -12 95 11 65 14 70
39 73 26 3 45 32 34 51 -3 5 -32 12 -63 16 -32 3 -68 9 -79 11 -14 4 -24 0
-28 -11z"/>
<path d="M5582 4414 c-7 -8 -11 -18 -7 -23 3 -5 -1 -12 -7 -14 -8 -3 -6 -6 5
-6 15 -1 19 5 16 25 0 4 5 10 11 14 7 4 8 10 4 13 -5 3 -15 -1 -22 -9z"/>
<path d="M3417 4292 c-10 -64 -21 -129 -23 -144 -2 -16 -3 -28 -2 -28 2 0 41
-7 88 -15 115 -20 120 -20 120 9 0 27 -9 31 -82 42 -47 6 -55 15 -42 48 4 12
16 14 55 9 47 -6 49 -5 49 20 0 26 -16 37 -55 37 -29 0 -38 13 -30 41 6 19 12
20 65 14 56 -7 58 -6 64 20 4 15 5 29 3 32 -2 2 -33 8 -68 13 -35 6 -78 12
-94 15 l-30 5 -18 -118z"/>
<path d="M3662 4230 c-21 -155 -20 -163 28 -158 23 3 26 8 34 76 5 39 12 72
16 72 3 0 24 -37 45 -81 38 -78 60 -99 99 -99 14 0 31 83 45 220 9 81 4 92
-39 88 -28 -3 -37 -28 -39 -100 -1 -26 -5 -49 -10 -52 -4 -3 -27 35 -50 83
-39 83 -45 89 -76 93 l-33 4 -20 -146z"/>
<path d="M5450 4376 c0 -2 8 -10 18 -17 15 -13 16 -12 3 4 -13 16 -21 21 -21
13z"/>
<path d="M5690 4360 c0 -6 -5 -8 -12 -4 -6 4 -8 3 -4 -4 3 -5 1 -12 -5 -14 -7
-2 -10 -10 -8 -17 3 -8 12 -4 27 12 15 16 20 27 13 32 -6 3 -11 1 -11 -5z"/>
<path d="M6388 4337 c-32 -17 -56 -32 -55 -34 5 -4 100 28 111 37 4 5 7 13 5
18 -2 6 -30 -4 -61 -21z"/>
<path d="M4006 4185 c-36 -75 -66 -141 -66 -146 0 -5 16 -9 35 -9 28 0 38 5
47 25 12 26 30 30 85 19 22 -4 32 -14 39 -37 7 -27 15 -33 43 -35 l33 -3 -6
38 c-6 34 -57 265 -60 270 -1 1 -20 5 -43 9 l-40 6 -67 -137z m115 -16 c3 -31
2 -34 -21 -31 -34 4 -35 6 -15 59 15 40 19 44 26 27 4 -12 9 -36 10 -55z"/>
<path d="M1991 4290 c-19 -11 -6 -41 14 -34 8 3 15 1 15 -4 0 -6 -8 -13 -17
-15 -14 -4 -12 -5 5 -6 29 -1 30 29 0 37 -20 5 -21 6 -3 12 10 4 14 9 9 13 -6
3 -16 2 -23 -3z"/>
<path d="M2043 4284 c-4 -10 0 -22 10 -29 9 -7 14 -15 10 -18 -3 -4 -1 -7 5
-7 17 0 24 19 18 46 -7 27 -33 32 -43 8z m27 -14 c0 -5 -2 -10 -4 -10 -3 0 -8
5 -11 10 -3 6 -1 10 4 10 6 0 11 -4 11 -10z"/>
<path d="M684 4264 c3 -9 6 -18 6 -20 0 -2 20 -4 45 -4 58 0 58 14 1 29 -58
14 -59 14 -52 -5z"/>
<path d="M6445 4214 c-55 -18 -108 -33 -117 -34 -9 0 -19 -4 -22 -9 -7 -10 45
-1 152 29 45 13 82 27 82 32 0 5 5 6 10 3 6 -3 10 -1 10 4 0 14 1 15 -115 -25z"/>
<path d="M5673 4205 c-10 -10 -9 -14 3 -19 22 -8 24 -8 24 8 0 21 -13 26 -27
11z"/>
<path d="M2050 4198 c0 -4 4 -8 9 -8 6 0 12 4 15 8 3 5 -1 9 -9 9 -8 0 -15 -4
-15 -9z"/>
<path d="M698 4103 c-40 -15 -68 -31 -68 -39 0 -11 8 -13 28 -8 42 10 142 56
142 65 0 14 -30 9 -102 -18z"/>
<path d="M6222 4100 c0 -14 2 -19 5 -12 2 6 2 18 0 25 -3 6 -5 1 -5 -13z"/>
<path d="M3070 4092 c-50 -16 -66 -76 -30 -112 22 -22 60 -26 78 -8 20 20 13
27 -25 25 -36 -2 -38 0 -41 30 -2 25 1 33 18 38 13 4 28 1 38 -9 10 -8 23 -12
30 -7 23 14 -37 53 -68 43z"/>
<path d="M3186 4072 c-3 -5 -9 -34 -14 -65 -7 -45 -6 -57 4 -57 8 0 16 11 20
25 6 26 19 31 43 16 8 -5 12 -18 8 -30 -3 -14 0 -21 9 -21 14 0 17 11 29 83 5
29 3 37 -10 37 -8 0 -15 -9 -15 -20 0 -15 -7 -20 -25 -20 -21 0 -25 5 -25 30
0 28 -13 40 -24 22z"/>
<path d="M3326 4033 c-2 -10 -8 -37 -11 -60 -5 -34 -4 -43 8 -43 9 0 17 14 22
38 3 20 9 47 12 60 6 27 -23 32 -31 5z"/>
<path d="M6325 4043 c-51 -7 -55 -25 -6 -21 25 2 46 9 49 16 2 6 0 11 -5 11
-4 -1 -21 -4 -38 -6z"/>
<path d="M3400 4020 c-41 -41 -13 -110 44 -110 19 0 39 6 45 14 17 20 -3 30
-28 14 -26 -16 -53 6 -49 41 3 30 39 41 64 20 10 -8 18 -9 25 -2 7 7 4 16 -12
27 -31 22 -65 20 -89 -4z"/>
<path d="M3535 3959 c-4 -33 -5 -63 -2 -66 10 -9 27 8 27 27 0 34 18 31 30 -5
6 -19 18 -35 26 -35 18 0 17 2 -2 48 -14 35 -14 38 7 55 30 24 14 35 -22 15
-28 -16 -29 -16 -29 2 0 11 -6 20 -14 20 -10 0 -16 -19 -21 -61z"/>
<path d="M3672 3943 c-5 -32 -8 -61 -5 -65 8 -14 21 -8 26 12 4 14 14 20 34
20 33 0 47 8 56 32 7 20 -17 48 -41 48 -9 0 -27 3 -38 6 -20 5 -23 0 -32 -53z
m84 16 c10 -17 -12 -32 -35 -24 -29 9 -27 35 3 35 14 0 28 -5 32 -11z"/>
<path d="M6135 3990 c3 -5 11 -10 16 -10 6 0 7 5 4 10 -3 6 -11 10 -16 10 -6
0 -7 -4 -4 -10z"/>
<path d="M3816 3963 c-3 -10 -8 -39 -12 -65 l-6 -48 31 -2 c17 -1 38 -2 46 -2
28 -2 19 19 -10 24 -43 8 -44 30 -1 30 44 0 47 15 6 24 -40 8 -40 30 0 24 17
-3 33 -1 36 3 6 10 -4 15 -48 23 -30 5 -37 3 -42 -11z"/>
<path d="M3951 3895 c-17 -30 -31 -57 -31 -60 0 -12 31 -4 36 10 9 22 39 18
57 -7 24 -36 31 -14 16 52 -17 78 -36 79 -78 5z m45 -12 c-10 -10 -19 5 -10
18 6 11 8 11 12 0 2 -7 1 -15 -2 -18z"/>
<path d="M3153 3903 c-24 -9 -14 -44 17 -61 33 -19 39 -39 13 -49 -10 -4 -22
2 -33 15 -20 25 -34 18 -19 -9 14 -28 75 -26 84 2 8 23 -1 35 -36 53 -12 6
-21 16 -21 21 2 18 35 18 49 -1 10 -14 13 -15 13 -3 0 31 -33 46 -67 32z"/>
<path d="M6275 3890 c58 -26 85 -33 85 -22 0 11 -84 43 -109 41 -9 0 2 -9 24
-19z"/>
<path d="M3263 3833 c-6 -32 -7 -62 -3 -67 5 -5 12 9 15 30 10 62 12 62 35 7
32 -76 41 -71 55 30 4 30 3 47 -4 47 -6 0 -11 -12 -12 -27 0 -16 -4 -36 -8
-47 -6 -15 -11 -9 -29 33 -11 28 -25 51 -30 51 -5 0 -13 -26 -19 -57z"/>
<path d="M4566 3875 c-3 -8 -1 -15 4 -15 6 0 10 7 10 15 0 8 -2 15 -4 15 -2 0
-6 -7 -10 -15z"/>
<path d="M2924 3869 c-3 -6 -3 -14 2 -18 5 -3 10 -22 12 -41 1 -19 7 -37 13
-41 6 -3 10 -8 8 -10 -7 -11 24 -78 34 -72 6 4 8 1 5 -8 -3 -8 1 -26 9 -40 10
-17 12 -18 8 -4 -4 11 -8 30 -10 42 -1 13 -8 29 -15 38 -7 8 -9 15 -4 15 5 0
0 7 -10 15 -11 8 -15 15 -9 15 7 0 6 20 -5 60 -16 59 -24 70 -38 49z"/>
<path d="M6375 3860 c-3 -5 -2 -10 4 -10 5 0 13 5 16 10 3 6 2 10 -4 10 -5 0
-13 -4 -16 -10z"/>
<path d="M3420 3813 c-33 -53 -41 -92 -12 -58 21 25 62 21 69 -6 8 -30 26 -22
19 9 -20 80 -28 102 -36 102 -6 0 -23 -21 -40 -47z m50 -15 c0 -5 -9 -8 -20
-8 -18 0 -19 3 -9 21 9 17 13 19 20 8 5 -8 9 -17 9 -21z"/>
<path d="M3580 3842 c-29 -9 -50 -35 -50 -64 0 -30 31 -68 56 -68 22 0 54 19
54 32 0 7 -5 7 -14 -2 -19 -15 -56 -9 -69 11 -14 23 0 67 24 74 13 4 27 0 40
-11 22 -20 38 -12 20 10 -14 17 -40 25 -61 18z"/>
<path d="M3686 3793 c-9 -56 -7 -93 4 -93 6 0 10 11 10 24 0 40 19 40 35 2 9
-20 20 -36 25 -36 5 0 2 19 -7 42 -16 40 -16 41 7 60 33 26 17 34 -18 9 -38
-27 -40 -26 -34 4 2 14 0 25 -6 25 -5 0 -12 -17 -16 -37z"/>
<path d="M3826 3797 c-24 -17 -14 -53 17 -63 40 -12 45 -44 7 -44 -10 0 -23 8
-29 17 -12 22 -24 13 -15 -11 8 -22 50 -31 70 -15 22 18 13 52 -18 67 -16 7
-28 20 -28 28 0 20 37 18 49 -3 5 -10 13 -14 18 -10 4 5 -3 17 -16 28 -28 23
-32 23 -55 6z"/>
<path d="M1967 3769 c-28 -16 -15 -69 18 -69 6 0 6 3 -1 8 -15 10 -28 52 -16
52 5 0 13 -10 17 -22 6 -19 8 -20 12 -6 7 28 -9 48 -30 37z"/>
<path d="M4435 3730 c3 -5 8 -10 11 -10 2 0 4 5 4 10 0 6 -5 10 -11 10 -5 0
-7 -4 -4 -10z"/>
<path d="M2675 3590 c-3 -5 1 -22 9 -38 17 -33 194 -222 207 -222 6 0 0 10
-13 23 -13 12 -61 73 -107 135 -46 61 -85 112 -87 112 -2 0 -6 -4 -9 -10z"/>
<path d="M2865 3590 c-6 -10 15 -50 27 -50 5 0 8 -6 8 -13 0 -7 6 -21 13 -32
11 -14 16 -15 22 -5 6 9 4 11 -4 6 -8 -5 -12 -3 -10 5 2 18 -32 99 -42 99 -4
0 -10 -4 -14 -10z m25 -20 c0 -5 -2 -10 -4 -10 -3 0 -8 5 -11 10 -3 6 -1 10 4
10 6 0 11 -4 11 -10z"/>
<path d="M2956 3428 c10 -14 21 -24 23 -22 3 3 -6 15 -18 27 l-24 22 19 -27z"/>
<path d="M2989 3323 c-13 -16 -12 -17 4 -4 16 13 21 21 13 21 -2 0 -10 -8 -17
-17z"/>
<path d="M2728 3302 c-3 -12 9 -30 39 -56 53 -46 65 -41 27 11 -52 68 -59 73
-66 45z"/>
<path d="M2886 3212 c-3 -5 1 -9 9 -9 8 0 12 4 9 9 -3 4 -7 8 -9 8 -2 0 -6 -4
-9 -8z"/>
<path d="M3110 3200 c0 -5 5 -10 11 -10 5 0 7 5 4 10 -3 6 -8 10 -11 10 -2 0
-4 -4 -4 -10z"/>
<path d="M2861 3172 c-17 -31 -13 -40 5 -14 9 13 14 26 11 29 -3 2 -10 -4 -16
-15z"/>
<path d="M2650 3160 c0 -13 37 -35 83 -50 59 -18 54 -6 -9 29 -61 33 -74 37
-74 21z"/>
<path d="M2831 3108 c-5 -13 -15 -50 -22 -81 -15 -65 -21 -68 -99 -37 -54 21
-108 28 -80 10 12 -8 13 -13 3 -30 -7 -11 -13 -42 -13 -69 0 -53 -7 -81 -21
-81 -4 0 -6 7 -3 15 4 11 -1 15 -17 16 -23 0 -23 1 -4 9 16 7 17 9 3 9 -9 1
-18 11 -20 24 -4 22 -20 -44 -32 -131 -6 -41 -5 -43 24 -49 17 -3 33 -10 36
-15 4 -5 3 -48 -1 -95 l-7 -85 -44 4 c-49 4 -50 2 -56 -72 -3 -31 0 -35 27
-40 23 -4 34 -14 49 -47 14 -32 26 -44 48 -49 25 -5 29 -10 24 -27 -3 -12 -6
-27 -6 -33 0 -13 -31 -14 -40 -2 -8 10 -50 -2 -50 -13 0 -6 6 -11 13 -13 6 -2
21 -8 32 -12 39 -15 175 -41 175 -34 0 5 -6 10 -14 13 -19 8 -18 67 1 74 10 4
12 14 9 29 -4 13 -3 24 1 24 4 0 59 -11 122 -24 145 -31 319 -62 391 -71 66
-8 74 -10 125 -23 22 -6 66 -14 99 -18 32 -3 53 -9 48 -13 -6 -3 20 -7 56 -7
37 -1 123 -3 192 -4 69 -2 153 1 187 5 38 5 73 4 91 -3 30 -10 31 -10 37 31
10 67 15 113 9 95 -4 -12 -16 -16 -57 -14 -29 1 -90 -1 -137 -4 -134 -10 -340
15 -340 41 0 5 10 13 21 20 15 8 19 8 15 0 -4 -6 -1 -11 6 -11 10 0 9 -3 -2
-11 -12 -9 -12 -10 3 -5 10 3 21 6 23 6 3 0 2 4 -1 10 -3 5 0 7 7 5 17 -7 110
62 155 114 29 34 32 44 23 61 -6 11 -15 18 -21 15 -15 -10 -11 2 8 20 9 9 16
30 16 46 0 19 3 25 9 17 4 -7 8 -8 8 -2 0 17 77 55 106 52 23 -3 30 4 50 42
39 75 27 159 -30 208 -54 46 -165 20 -204 -48 -12 -21 -25 -30 -42 -30 -43 0
-566 84 -760 122 -107 21 -135 32 -112 47 15 9 10 77 -6 74 -8 -2 -8 6 0 28
12 36 3 52 -11 17z m1054 -228 c3 -5 -2 -10 -12 -10 -17 -1 -17 -1 0 -15 24
-17 14 -55 -13 -55 -28 0 -37 45 -15 70 20 22 31 25 40 10z m-732 -14 c17 -13
22 -42 11 -70 -7 -19 -63 -22 -65 -3 -2 21 -5 31 -14 51 -14 32 33 48 68 22z
m294 -27 c4 3 -1 -4 -11 -16 -23 -28 -23 -28 -64 -3 -45 28 -32 42 23 26 24
-8 48 -11 52 -7z m510 7 c1 -1 -2 -19 -8 -39 -7 -27 -15 -37 -29 -37 -25 0
-27 20 -2 21 16 1 16 2 0 6 -18 4 -25 43 -11 56 5 6 41 0 50 -7z m-714 -31
c-1 -16 -8 -33 -14 -39 -9 -8 -10 -7 -6 6 3 9 1 18 -5 20 -6 2 -8 13 -3 26 9
31 30 21 28 -13z m63 0 c9 -35 -21 -81 -42 -64 -14 11 -12 56 3 82 10 16 33 6
39 -18z m-336 -44 c0 -4 -7 -16 -15 -27 -15 -19 -16 -18 -40 9 -30 33 -30 40
-8 63 16 15 18 15 40 -10 13 -15 23 -31 23 -35z m623 15 c19 -40 11 -52 -41
-62 -24 -5 -33 -2 -38 10 -4 10 -12 15 -18 13 -8 -3 -11 5 -8 25 5 30 27 46
68 47 14 1 26 -10 37 -33z m117 9 c16 -19 -11 -64 -37 -61 -40 3 -57 47 -25
65 25 15 48 13 62 -4z m-286 -24 c21 -23 17 -57 -7 -55 -9 1 -17 -2 -17 -7 0
-15 -30 -10 -36 6 -4 8 -9 13 -13 10 -4 -2 -5 9 -3 25 4 26 15 35 48 39 6 0
19 -8 28 -18z m-534 -10 c0 -5 -3 -16 -6 -25 -5 -14 -8 -14 -21 -1 -8 8 -11
19 -8 25 8 13 35 13 35 1z m188 -16 c42 -53 -12 -131 -58 -85 -14 14 -20 34
-20 65 0 43 1 45 29 45 20 0 36 -8 49 -25z m772 -5 c10 -19 10 -20 -9 -8 -22
13 -28 28 -11 28 5 0 14 -9 20 -20z m50 -5 c0 6 9 11 20 12 11 1 20 -3 20 -8
0 -6 -4 -7 -10 -4 -5 3 -10 1 -10 -4 0 -13 -37 -15 -44 -2 -3 4 -3 11 1 15 4
3 10 1 15 -6 4 -7 8 -8 8 -3z m-674 -12 c14 -19 18 -71 6 -89 -11 -17 -88 -26
-100 -11 -10 12 -15 45 -13 79 2 32 86 49 107 21z m579 -12 c3 -5 1 -12 -5
-16 -5 -3 -10 1 -10 9 0 18 6 21 15 7z m-942 -62 c4 -14 0 -19 -14 -19 -19 0
-39 34 -39 67 0 13 5 12 24 -6 13 -13 26 -31 29 -42z m1024 46 c-2 -5 -11 -9
-20 -9 -9 1 -24 2 -32 3 -31 2 -13 19 20 18 20 -1 34 -6 32 -12z m20 -17 c-3
-8 -6 -5 -6 6 -1 11 2 17 5 13 3 -3 4 -12 1 -19z m48 12 c3 -5 -3 -10 -15 -10
-12 0 -18 5 -15 10 3 6 10 10 15 10 5 0 12 -4 15 -10z m-264 -22 c24 -26 24
-51 2 -70 -40 -34 -89 -32 -77 4 4 15 2 19 -12 16 -25 -4 -30 29 -7 52 25 26
71 25 94 -2z m-351 -3 c39 -20 50 -42 38 -76 -9 -27 -44 -44 -70 -34 -19 7
-48 62 -48 90 0 21 10 29 43 34 4 0 21 -6 37 -14z m184 -7 c22 -32 20 -53 -9
-72 -23 -15 -26 -15 -51 7 -26 23 -26 24 -10 55 19 38 48 42 70 10z m-685 -77
c21 -45 67 -117 80 -125 6 -4 19 -19 30 -35 l20 -28 -24 5 c-14 2 -22 9 -18
15 3 6 1 7 -6 3 -14 -9 -117 11 -151 30 -14 7 -19 13 -12 14 7 0 10 5 7 10 -3
6 -1 10 5 10 8 0 11 22 8 70 -2 55 0 70 12 73 22 5 30 -2 49 -42z m249 17 c14
-12 16 -40 3 -53 -5 -6 -11 -23 -13 -40 -4 -43 -40 -42 -84 2 -41 41 -43 65
-7 93 27 21 72 20 101 -2z m138 -39 c20 -17 17 -52 -7 -78 l-22 -23 -19 31
c-15 23 -24 29 -33 21 -6 -5 -15 -7 -18 -3 -11 11 -8 48 6 62 14 14 71 9 93
-10z m-308 -20 c-9 -27 -12 -29 -26 -16 -19 19 -9 47 17 47 18 0 19 -3 9 -31z
m506 14 c4 -4 15 -8 24 -8 13 0 16 -7 14 -30 -7 -59 -46 -73 -81 -29 -16 21
-18 30 -9 50 11 23 37 32 52 17z m324 -13 c32 -30 27 -80 -8 -80 -11 0 -17 -7
-16 -17 2 -29 -39 -28 -62 2 -23 29 -20 57 5 48 11 -4 14 -3 9 6 -4 7 -5 23
-2 37 8 30 43 32 74 4z m-168 1 c0 -5 -9 -7 -20 -4 -11 3 -20 7 -20 9 0 2 9 4
20 4 11 0 20 -4 20 -9z m-256 -37 c17 -7 22 -44 6 -44 -5 0 -10 -5 -10 -12 0
-6 8 -4 19 6 17 15 19 15 25 1 11 -30 6 -35 -29 -35 -26 0 -33 4 -29 14 3 8
-4 19 -16 26 -21 11 -21 12 -4 31 20 22 17 21 38 13z m284 -30 c22 -14 28 -40
14 -59 -13 -19 -58 -16 -85 5 -32 25 -33 37 -9 61 18 19 42 17 80 -7z m-589
-25 c22 -8 30 -16 26 -26 -3 -9 0 -22 6 -29 6 -7 8 -18 4 -24 -8 -13 -29 -1
-75 41 -32 30 -33 33 -15 40 11 4 20 8 21 8 1 1 15 -4 33 -10z m453 -26 c23
-26 30 -68 16 -97 -12 -28 -39 -34 -57 -12 -6 7 -25 16 -41 20 -17 3 -30 9
-30 13 0 19 42 75 63 83 31 12 32 12 49 -7z m-302 -14 c0 -6 -4 -7 -10 -4 -5
3 -10 11 -10 16 0 6 5 7 10 4 6 -3 10 -11 10 -16z m555 -19 c-10 -11 -20 -18
-23 -15 -7 6 18 35 31 35 5 0 2 -9 -8 -20z m-495 -20 c0 -5 13 -7 29 -4 23 5
32 2 41 -17 11 -19 10 -24 -4 -35 -23 -16 -72 -3 -68 19 2 10 -2 17 -8 17 -5
0 -10 7 -10 15 0 8 5 15 10 15 6 0 10 -4 10 -10z m-115 -30 c-3 -5 1 -10 9
-10 9 0 16 -4 16 -10 0 -15 -26 -12 -39 4 -9 11 -9 15 1 19 19 8 20 8 13 -3z
m-430 -30 c3 -5 1 -10 -4 -10 -6 0 -11 5 -11 10 0 6 2 10 4 10 3 0 8 -4 11
-10z m20 -42 c7 -7 6 -12 -2 -15 -7 -3 -13 -11 -13 -18 0 -7 6 -16 13 -18 7
-3 5 -6 -5 -6 -13 -1 -18 7 -19 27 -1 22 -2 23 -6 5 -6 -33 -33 -17 -33 19 0
28 2 30 28 23 15 -3 32 -11 37 -17z"/>
<path d="M3850 2830 c0 -5 5 -10 10 -10 6 0 10 5 10 10 0 6 -4 10 -10 10 -5 0
-10 -4 -10 -10z"/>
<path d="M3921 2824 c0 -11 3 -14 6 -6 3 7 2 16 -1 19 -3 4 -6 -2 -5 -13z"/>
<path d="M2890 2551 c0 -5 5 -13 10 -16 6 -3 10 -2 10 4 0 5 -4 13 -10 16 -5
3 -10 2 -10 -4z"/>
<path d="M5670 2961 c0 -10 41 -43 47 -37 10 10 -5 33 -26 39 -12 3 -21 2 -21
-2z"/>
<path d="M5728 2903 c7 -3 16 -2 19 1 4 3 -2 6 -13 5 -11 0 -14 -3 -6 -6z"/>
<path d="M6150 2846 c-62 -42 -234 -149 -261 -162 -14 -8 -34 -22 -43 -33 -17
-19 -16 -20 26 -44 157 -89 768 -400 768 -392 0 4 -13 24 -28 44 -16 20 -75
106 -133 191 -101 151 -289 421 -292 419 -1 0 -18 -11 -37 -23z m-76 -208 c-4
-7 -2 -8 5 -4 11 7 121 -40 121 -52 0 -2 -8 -14 -18 -27 -16 -20 -20 -21 -36
-9 -13 9 -17 20 -12 38 4 16 2 26 -4 26 -6 0 -8 -4 -5 -10 3 -5 -1 -10 -9 -10
-10 0 -13 -6 -10 -15 5 -11 2 -13 -10 -9 -19 7 -19 9 -6 37 l11 22 -17 -22
c-13 -18 -19 -20 -34 -11 -17 11 -17 14 -4 40 8 16 19 26 25 23 5 -4 6 -11 3
-17z m-65 -45 c-3 -20 2 -24 16 -13 12 10 15 9 15 -4 0 -10 4 -15 9 -11 11 6
61 -15 61 -26 0 -4 -5 -11 -10 -14 -6 -4 -7 -11 -4 -17 5 -7 2 -8 -5 -4 -7 5
-10 15 -6 25 5 13 4 13 -6 4 -10 -10 -21 -8 -53 10 -23 12 -42 22 -44 23 -1 1
0 9 4 18 6 16 25 23 23 9z m222 -57 c-19 -23 2 -27 25 -5 24 23 49 17 39 -8
-4 -12 -2 -13 8 -5 18 15 41 -2 33 -24 -6 -18 -5 -17 9 0 8 11 15 15 15 8 0
-6 7 -9 15 -6 8 4 15 1 15 -5 0 -6 -4 -11 -10 -11 -5 0 -10 -8 -10 -18 0 -28
-11 -34 -29 -14 -9 9 -25 17 -36 17 -14 0 -19 6 -17 19 3 17 1 18 -11 8 -12
-10 -21 -9 -44 5 -30 18 -32 33 -10 62 8 9 12 10 15 2 2 -7 -1 -18 -7 -25z
m-48 -54 c-4 -13 -3 -13 9 2 19 24 31 7 13 -17 -11 -16 -14 -16 -28 -2 -9 8
-22 15 -31 15 -21 0 -30 18 -16 35 10 12 15 12 35 -1 15 -10 22 -21 18 -32z
m55 -37 c-2 -10 -7 -12 -17 -5 -13 7 -13 11 -1 25 15 18 24 8 18 -20z m30 -5
c-15 -24 -22 -19 -13 9 3 12 11 19 16 16 5 -4 3 -14 -3 -25z m40 -20 c-7 -10
-14 -18 -15 -16 -6 6 9 36 18 36 5 0 4 -9 -3 -20z m42 -21 c4 8 16 11 29 6 23
-7 25 -13 12 -34 -7 -11 -15 -10 -45 4 -39 19 -42 25 -23 44 10 10 13 8 15
-10 3 -15 6 -18 12 -10z m71 -32 c-6 -8 -8 -17 -4 -20 3 -4 1 -7 -5 -7 -13 0
-16 22 -5 33 12 13 25 7 14 -6z"/>
<path d="M6265 2519 c-4 -6 -5 -12 -2 -15 2 -3 7 2 10 11 7 17 1 20 -8 4z"/>
<path d="M6306 2493 c-6 -14 -5 -15 5 -6 7 7 10 15 7 18 -3 3 -9 -2 -12 -12z"/>
<path d="M6145 2500 c3 -5 8 -10 11 -10 2 0 4 5 4 10 0 6 -5 10 -11 10 -5 0
-7 -4 -4 -10z"/>
<path d="M6366 2385 c4 -8 10 -12 15 -9 11 6 2 24 -11 24 -5 0 -7 -7 -4 -15z"/>
<path d="M5785 2729 c4 -13 8 -34 9 -46 1 -29 36 -31 61 -3 18 19 17 20 -3 20
-11 0 -27 8 -34 18 -7 10 -19 22 -27 27 -11 6 -13 3 -6 -16z"/>
<path d="M5756 2633 c-6 -14 -5 -15 5 -6 7 7 10 15 7 18 -3 3 -9 -2 -12 -12z"/>
<path d="M3881 2578 c-11 -29 5 -53 25 -37 17 14 35 3 27 -16 -3 -8 0 -15 5
-15 13 0 17 7 26 43 5 23 3 27 -14 27 -11 0 -20 -5 -20 -11 0 -8 -5 -7 -15 1
-13 11 -13 15 -3 21 10 7 8 9 -5 9 -10 0 -21 -10 -26 -22z"/>
<path d="M3995 2538 c-4 -27 -11 -50 -16 -54 -5 -3 -9 -11 -9 -19 0 -11 7 -11
37 -3 20 5 58 7 84 4 l46 -6 11 52 c5 29 8 55 6 57 -2 2 -37 7 -78 10 l-75 6
-6 -47z"/>
<path d="M3895 2490 c-3 -5 -1 -10 4 -10 6 0 11 5 11 10 0 6 -2 10 -4 10 -3 0
-8 -4 -11 -10z"/>
<path d="M3921 2484 c0 -11 3 -14 6 -6 3 7 2 16 -1 19 -3 4 -6 -2 -5 -13z"/>
<path d="M3940 2489 c0 -5 5 -7 10 -4 6 3 10 8 10 11 0 2 -4 4 -10 4 -5 0 -10
-5 -10 -11z"/>
<path d="M5875 2383 c-58 -30 -134 -103 -129 -121 4 -12 3 -13 -3 -4 -7 10
-13 9 -26 -6 -15 -16 -14 -22 22 -78 63 -100 109 -118 155 -63 14 17 26 38 26
47 0 13 9 17 34 18 51 1 69 20 64 69 -6 48 -73 155 -97 155 -9 -1 -29 -8 -46
-17z m74 -99 c6 -14 9 -30 6 -35 -12 -18 -45 -9 -61 17 -15 22 -15 27 -3 35
25 16 45 10 58 -17z m-92 -99 c-3 -31 -40 -31 -57 -1 -12 23 -11 28 5 46 l19
21 18 -23 c10 -13 17 -32 15 -43z"/>
<path d="M1608 2323 l-26 -28 49 -145 c27 -80 50 -149 52 -155 2 -5 15 3 30
17 23 23 26 31 16 54 -9 25 -6 31 24 62 33 33 36 34 70 21 31 -11 37 -10 61 9
l27 20 -113 75 c-104 69 -151 97 -160 97 -3 0 -16 -12 -30 -27z m132 -119 c0
-6 -9 -19 -20 -29 -19 -17 -20 -17 -40 29 -11 26 -20 52 -20 57 0 14 80 -43
80 -57z"/>
<path d="M2602 2280 c0 -14 2 -19 5 -12 2 6 2 18 0 25 -3 6 -5 1 -5 -13z"/>
<path d="M649 2131 c-160 -134 -374 -316 -417 -356 -11 -10 13 -42 119 -166
73 -85 137 -154 142 -154 8 0 351 825 345 830 -2 1 -87 -68 -189 -154z m74
-74 c4 3 7 -1 7 -11 0 -13 -5 -16 -22 -11 -22 6 -22 6 -4 -9 19 -16 19 -16 -5
-17 -18 -1 -19 -3 -6 -6 13 -3 16 -10 12 -21 -4 -10 -12 -30 -17 -45 -7 -19
-15 -26 -25 -23 -8 3 -19 6 -24 6 -4 0 -6 7 -3 15 5 13 9 13 23 3 13 -10 14
-10 4 2 -19 21 -16 30 10 31 16 1 18 2 5 6 -22 5 -22 3 -2 53 12 30 20 38 29
30 6 -5 15 -7 18 -3z m-128 -57 c3 -5 17 -10 30 -10 23 0 23 -1 10 -27 -7 -16
-17 -39 -23 -53 -37 -97 -39 -100 -72 -89 -39 14 -40 33 0 26 33 -7 42 8 10
16 -23 6 -27 35 -6 43 8 3 12 12 9 20 -3 8 0 21 7 29 7 8 9 15 5 15 -4 0 -2 6
4 13 6 8 8 17 4 20 -3 4 -1 7 5 7 6 0 14 -4 17 -10z m65 -126 c0 -4 -7 -4 -15
0 -8 3 -15 1 -15 -3 0 -5 4 -11 9 -13 10 -3 -22 -105 -39 -122 -15 -15 -41 12
-30 32 6 10 15 30 20 46 9 23 13 26 25 16 9 -7 15 -8 15 -2 0 5 -6 12 -14 15
-12 5 -12 11 -3 31 9 19 15 22 29 15 10 -5 18 -12 18 -15z m-129 -81 c29 -17
38 -33 18 -33 -5 0 -7 -5 -4 -11 4 -6 -3 -13 -15 -16 -15 -4 -18 -8 -9 -13 7
-5 9 -15 4 -26 -5 -11 -9 -21 -9 -24 -1 -3 -6 -13 -12 -22 -8 -15 -14 -16 -40
-7 l-30 12 31 78 c16 44 32 79 33 79 2 0 17 -8 33 -17z m57 -89 c1 -1 -10 -29
-25 -63 -19 -42 -33 -61 -45 -61 -10 0 -18 7 -18 15 0 8 7 15 16 15 14 0 14 3
4 15 -10 13 -9 15 11 15 15 0 20 3 12 8 -7 5 -10 20 -7 37 7 41 14 48 32 33
10 -7 18 -13 20 -14z"/>
<path d="M480 1729 c0 -5 5 -7 10 -4 6 3 10 8 10 11 0 2 -4 4 -10 4 -5 0 -10
-5 -10 -11z"/>
<path d="M1447 2182 c-25 -27 -22 -38 28 -99 25 -31 44 -57 42 -59 -1 -2 -45
10 -96 26 -89 27 -95 28 -117 12 -13 -9 -24 -20 -24 -24 0 -5 40 -61 89 -127
92 -123 104 -131 131 -81 8 15 1 30 -36 80 -25 34 -44 64 -41 66 2 2 45 -11
95 -28 l91 -33 25 24 25 24 -36 51 c-61 83 -145 186 -153 186 -4 0 -14 -8 -23
-18z"/>
<path d="M3410 2159 c0 -11 5 -17 10 -14 6 4 8 11 5 16 -8 13 19 11 32 -2 7
-7 12 -6 16 5 5 13 -1 16 -28 16 -29 0 -35 -4 -35 -21z"/>
<path d="M6053 2169 c-25 -9 -30 -24 -12 -34 16 -10 9 -19 -64 -74 -53 -41
-69 -49 -73 -36 -7 18 -35 20 -51 4 -9 -9 0 -29 34 -80 47 -70 61 -80 82 -55
10 11 10 20 1 36 -14 27 1 45 72 91 45 29 50 30 67 15 22 -20 45 -21 60 -2 9
10 2 27 -33 74 -52 71 -54 72 -83 61z"/>
<path d="M2860 2156 c0 -2 7 -7 16 -10 8 -3 12 -2 9 4 -6 10 -25 14 -25 6z"/>
<path d="M2925 2140 c53 -18 105 -28 105 -20 0 4 -17 10 -37 13 -21 4 -51 9
-68 12 l-30 5 30 -10z"/>
<path d="M3060 2110 c14 -4 39 -8 55 -8 l30 0 -30 8 c-16 4 -41 8 -55 8 l-25
0 25 -8z"/>
<path d="M3178 2093 c6 -2 18 -2 25 0 6 3 1 5 -13 5 -14 0 -19 -2 -12 -5z"/>
<path d="M6583 2056 c1 -11 9 -21 17 -23 10 -3 11 -2 4 4 -6 4 -14 15 -17 23
-5 11 -6 9 -4 -4z"/>
<path d="M5694 2040 c-11 -4 -27 -22 -34 -40 -12 -28 -11 -34 7 -58 11 -15 28
-28 37 -30 23 -5 20 25 -4 31 -25 6 -27 49 -4 68 19 16 47 1 52 -27 7 -34 22
-40 22 -8 0 17 -9 40 -20 52 -23 24 -25 25 -56 12z"/>
<path d="M6163 1987 c-51 -27 -195 -146 -191 -159 8 -24 114 -157 123 -154 6
2 9 14 8 27 -1 13 1 18 3 12 3 -7 10 -13 15 -13 5 0 -7 22 -26 50 -40 58 -41
61 -17 83 17 16 20 14 48 -22 27 -37 30 -38 47 -24 22 21 22 34 -3 66 -26 32
-25 44 2 53 16 5 26 0 40 -19 49 -67 53 -70 76 -58 12 6 22 16 22 22 0 8 -76
124 -99 151 -3 3 -25 -3 -48 -15z"/>
<path d="M1151 1931 c-48 -43 -70 -70 -63 -75 7 -4 48 -58 93 -121 l82 -114
76 66 c42 36 77 69 79 73 1 4 -5 17 -15 29 l-18 22 -50 -44 -49 -44 -19 23
c-18 23 -17 23 18 56 26 23 34 38 30 51 -10 25 -45 21 -76 -9 l-27 -26 -18 27
-17 26 47 42 48 42 -24 22 -23 21 -74 -67z"/>
<path d="M1785 1970 c-6 -9 18 -117 29 -127 9 -10 25 8 19 22 -8 23 17 47 43
41 44 -12 33 13 -20 43 -59 34 -62 35 -71 21z m49 -51 c-8 -13 -24 -1 -24 18
0 13 3 13 15 3 8 -7 12 -16 9 -21z"/>
<path d="M5762 1900 c-26 -23 -38 -41 -32 -45 6 -4 18 -1 27 6 13 11 17 10 29
-6 18 -24 18 -31 -1 -39 -15 -5 -21 -36 -7 -36 15 1 97 79 89 86 -4 5 -17 2
-28 -5 -18 -10 -23 -10 -35 6 -17 23 -17 30 1 37 15 5 22 36 8 36 -5 -1 -27
-18 -51 -40z"/>
<path d="M1676 1881 l-28 -29 38 -51 38 -51 35 35 c38 37 36 62 -3 26 -20 -19
-25 -20 -35 -7 -10 12 -9 17 8 28 12 7 21 18 21 25 0 18 -10 16 -32 -4 -13
-11 -22 -13 -29 -6 -7 7 -2 15 16 27 14 9 23 21 20 26 -10 16 -19 12 -49 -19z"/>
<path d="M2043 1845 c0 -22 2 -30 4 -17 2 12 2 30 0 40 -3 9 -5 -1 -4 -23z"/>
<path d="M2056 1809 c-7 -51 11 -334 23 -356 3 -6 4 52 3 130 -2 78 -8 147
-13 153 -5 7 -6 37 -3 68 4 31 4 56 2 56 -3 0 -8 -23 -12 -51z"/>
<path d="M983 1784 c-35 -31 -63 -59 -63 -62 0 -4 7 -16 15 -26 14 -18 16 -18
33 -3 17 16 20 16 38 -6 11 -12 36 -46 54 -76 30 -48 32 -54 17 -63 -21 -11
-22 -41 -2 -58 17 -14 20 -11 107 69 32 29 36 37 26 55 -16 31 -16 31 -38 11
-11 -10 -22 -16 -24 -14 -2 2 -24 35 -50 72 -46 68 -54 87 -37 87 17 0 19 27
2 48 -16 21 -16 21 -78 -34z"/>
<path d="M5652 1823 c-6 -10 -6 -27 0 -45 7 -21 7 -33 0 -40 -18 -18 -45 11
-37 39 3 13 1 23 -5 23 -18 0 -11 -56 10 -75 17 -15 22 -16 36 -4 12 10 14 23
9 57 -6 39 -4 43 12 40 10 -2 20 -15 24 -33 7 -30 7 -30 8 -3 1 25 -21 58 -39
58 -5 0 -13 -8 -18 -17z"/>
<path d="M1577 1795 c-20 -14 -37 -28 -37 -31 0 -16 76 -102 83 -95 5 5 4 17
-2 29 -8 15 -7 23 5 33 30 25 37 49 18 70 -22 24 -22 24 -67 -6z m49 -16 c10
-17 -23 -46 -38 -31 -8 8 -8 15 2 27 15 18 26 19 36 4z"/>
<path d="M5845 1780 c-21 -22 -36 -43 -32 -47 10 -9 81 50 85 71 5 26 -11 19
-53 -24z"/>
<path d="M6310 1789 c-19 -10 -70 -51 -113 -91 -76 -71 -77 -74 -62 -95 9 -13
22 -23 28 -23 7 0 34 20 62 45 27 24 51 43 52 41 2 -1 -8 -40 -22 -86 -29 -98
-30 -113 -9 -145 l16 -25 59 59 c32 32 83 71 114 87 30 16 55 32 55 35 0 4 -9
18 -20 32 -18 23 -24 25 -48 16 -15 -6 -44 -24 -65 -41 -21 -16 -40 -28 -43
-25 -2 2 11 42 31 88 40 96 40 97 17 126 -17 22 -17 22 -52 2z"/>
<path d="M1802 1764 c-32 -22 -26 -59 8 -58 14 0 35 4 48 8 18 6 22 4 22 -12
0 -25 -23 -44 -44 -36 -9 3 -16 1 -16 -5 0 -18 46 -12 64 8 26 29 17 56 -19
55 -17 0 -37 -2 -45 -5 -10 -3 -15 3 -15 16 0 13 8 21 23 23 12 2 20 8 17 13
-8 13 -17 11 -43 -7z"/>
<path d="M5880 1728 c-11 -12 -20 -30 -20 -39 0 -23 21 -69 31 -69 4 0 14 -3
23 -6 11 -4 16 -1 16 10 0 9 -7 16 -15 16 -23 0 -38 36 -25 61 17 30 54 22 58
-13 4 -31 32 -39 32 -9 0 26 -38 71 -60 71 -11 0 -28 -10 -40 -22z"/>
<path d="M1499 1735 c-4 -5 -10 -25 -14 -44 -6 -28 -9 -31 -17 -17 -9 16 -28
14 -28 -3 0 -5 16 -29 36 -55 26 -34 39 -45 47 -37 7 7 5 16 -8 31 -23 26 -14
35 23 22 16 -5 35 -6 43 -2 9 6 1 13 -28 25 -37 15 -42 21 -45 53 -2 21 -6 33
-9 27z"/>
<path d="M5700 1700 c-49 -44 -41 -56 9 -14 17 14 31 24 31 22 0 -3 -7 -25
-16 -51 -9 -26 -14 -52 -12 -57 2 -6 25 5 51 25 27 20 46 39 43 42 -3 3 -21
-6 -41 -21 -19 -15 -35 -25 -35 -23 0 3 7 24 15 47 16 47 19 70 8 70 -5 -1
-28 -19 -53 -40z"/>
<path d="M1728 1697 c-5 -10 -8 -30 -8 -44 0 -25 0 -26 -20 -8 -31 28 -24 4
12 -43 42 -55 67 -60 32 -7 -15 22 -15 25 -1 25 9 0 27 -4 41 -10 15 -5 28 -6
31 0 3 5 -12 14 -34 21 -36 11 -40 15 -43 48 -2 27 -5 32 -10 18z"/>
<path d="M840 1653 c-8 -3 -43 -28 -78 -56 -59 -48 -61 -52 -47 -71 8 -12 33
-51 55 -87 23 -37 56 -84 74 -105 l33 -38 49 42 c89 75 113 122 89 178 -13 32
-45 51 -65 39 -6 -4 -10 7 -10 28 0 55 -49 89 -100 70z m24 -59 c24 -9 19 -48
-9 -74 -25 -23 -25 -23 -40 -4 -21 27 -18 49 8 67 27 19 22 18 41 11z m84
-129 c2 -12 -8 -31 -23 -45 l-25 -24 -22 22 -22 22 24 25 c28 30 64 30 68 0z"/>
<path d="M4437 1626 c6 -29 24 -34 43 -11 15 18 13 21 -21 30 -24 6 -26 4 -22
-19z"/>
<path d="M5969 1600 c-24 -21 -41 -41 -37 -46 5 -4 16 1 27 10 24 22 35 7 21
-29 -6 -17 -7 -33 -1 -43 8 -14 12 -7 23 31 12 46 14 48 41 43 20 -4 27 -2 25
7 -3 6 -17 13 -31 15 -29 4 -33 12 -16 29 6 6 7 13 2 16 -5 3 -29 -11 -54 -33z"/>
<path d="M1362 1614 c-31 -21 -31 -87 0 -108 12 -9 31 -16 41 -16 22 0 67 43
67 65 0 23 -24 18 -35 -7 -15 -34 -52 -35 -66 -4 -14 30 1 56 32 56 11 0 19 7
19 15 0 19 -30 19 -58 -1z"/>
<path d="M1600 1590 c-24 -24 -26 -57 -4 -88 29 -42 104 -20 104 31 0 19 -3
18 -20 -10 -11 -18 -27 -33 -35 -33 -17 0 -55 35 -55 51 0 25 22 49 45 49 14
0 25 5 25 10 0 17 -39 11 -60 -10z"/>
<path d="M5788 1574 c-27 -8 -48 -19 -48 -23 0 -5 8 -7 18 -4 25 6 60 -33 44
-49 -14 -14 -16 -28 -4 -28 4 0 22 27 40 60 38 68 35 70 -50 44z m52 -13 c0
-5 -6 -14 -14 -20 -16 -13 -32 2 -21 19 8 12 35 13 35 1z"/>
<path d="M1915 1561 c-7 -12 32 -132 47 -146 7 -7 9 -2 5 15 -3 14 -11 51 -18
83 -12 55 -21 68 -34 48z"/>
<path d="M4396 1526 c-44 -38 -44 -33 19 -112 14 -18 25 -34 25 -38 0 -9 82
-126 93 -133 6 -4 8 3 5 15 -4 13 -2 20 4 16 5 -3 7 -16 4 -27 -3 -11 2 -32
10 -47 13 -21 22 -25 47 -22 27 3 35 -1 50 -28 14 -22 17 -41 12 -69 -5 -28
-2 -42 10 -55 9 -8 17 -24 18 -33 0 -10 16 -31 34 -46 35 -31 34 -32 37 28 1
11 8 20 16 20 8 0 20 4 27 8 16 10 60 -19 68 -43 7 -21 -3 -69 -18 -87 -5 -7
-18 -13 -28 -13 -31 0 -22 -18 15 -30 33 -11 56 -43 56 -80 0 -10 8 -25 19
-32 10 -7 25 -27 35 -45 18 -36 22 -103 5 -103 -5 0 -7 -5 -3 -11 4 -7 -8 -3
-26 7 -18 10 -36 28 -40 39 -8 18 -9 18 -9 2 -1 -28 -26 -14 -26 14 0 13 5 34
13 47 14 24 13 25 -39 22 -40 -1 -69 20 -69 50 0 10 -4 22 -10 25 -17 10 -11
25 9 25 11 0 23 5 26 10 3 6 1 10 -4 10 -6 0 -11 5 -11 10 0 6 7 10 15 10 21
0 19 22 -4 42 -18 16 -20 14 -40 -32 -26 -59 -51 -71 -92 -41 -15 12 -32 21
-37 21 -6 0 -12 9 -15 19 -8 32 4 69 30 95 23 24 24 26 9 48 -15 21 -16 22
-16 2 0 -28 -36 -64 -65 -64 -17 0 -25 -6 -27 -22 -4 -21 -6 -20 -27 15 -13
20 -27 37 -32 37 -14 0 -11 -9 11 -37 11 -14 20 -31 20 -37 0 -8 -3 -8 -8 0
-10 15 -42 25 -55 17 -24 -15 -34 -10 -54 33 -15 31 -17 41 -7 37 8 -3 14 -11
14 -19 0 -8 5 -14 10 -14 6 0 8 12 4 28 -4 22 -3 24 6 12 9 -12 10 -9 6 15
l-6 30 17 -27 c16 -25 33 -37 33 -23 0 3 -15 29 -34 58 -60 93 -156 249 -156
254 0 3 -14 24 -32 47 -17 22 -33 43 -35 45 -5 7 -72 -43 -78 -58 -3 -7 9 -29
26 -48 17 -20 44 -63 60 -97 17 -33 46 -79 66 -101 20 -22 32 -34 28 -26 -5
10 -4 12 4 7 6 -4 9 -12 6 -17 -7 -11 92 -174 177 -290 35 -48 69 -95 75 -105
7 -11 37 -53 68 -94 51 -70 121 -173 203 -300 20 -30 41 -61 46 -69 9 -12 8
-13 -4 -6 -8 4 -2 -4 13 -19 24 -22 27 -29 16 -42 -10 -12 -14 -12 -28 -1 -33
29 -43 30 -26 3 15 -23 23 -26 47 -21 31 7 36 4 95 -57 23 -25 34 -28 90 -28
35 0 63 4 63 10 0 6 -4 10 -8 10 -5 0 -16 15 -24 34 l-16 33 51 39 c29 21 61
47 71 57 27 23 31 22 57 -15 12 -18 24 -35 25 -37 2 -2 23 11 48 29 40 29 43
34 30 48 -28 28 -47 101 -22 86 8 -5 9 -2 5 10 -4 10 -10 30 -13 44 l-7 27 21
-22 c14 -14 29 -19 42 -16 23 6 25 16 8 46 -19 35 -18 41 24 88 42 45 73 103
63 118 -2 5 24 38 59 74 61 61 102 128 92 151 -2 6 -5 3 -5 -6 -1 -20 -21 -25
-21 -5 0 8 -3 8 -9 -2 -7 -11 -10 -10 -12 4 -4 17 -5 17 -20 2 -14 -14 -22
-14 -60 -4 -43 13 -44 12 -77 -21 -18 -19 -26 -32 -17 -29 8 4 15 2 15 -3 0
-6 -12 -10 -27 -11 -16 0 -22 -3 -14 -6 10 -4 8 -9 -10 -20 -13 -8 -16 -12 -6
-9 10 3 16 2 12 -3 -3 -5 1 -12 7 -15 7 -3 0 -3 -17 0 -19 4 -25 2 -17 -3 9
-7 5 -13 -15 -22 -24 -11 -29 -10 -38 4 -5 9 -34 48 -63 88 -30 40 -73 101
-98 137 -51 76 -107 143 -98 118 4 -13 -1 -21 -17 -27 -29 -11 -55 10 -68 56
-14 49 2 60 38 24 43 -42 48 -39 13 12 -16 23 -48 71 -72 107 -24 36 -60 86
-80 111 -45 59 -58 78 -73 109 -7 14 -21 26 -31 28 -20 4 -72 -42 -112 -100
-15 -21 -30 -38 -34 -38 -4 0 -47 61 -96 135 -49 74 -91 135 -94 135 -3 -1
-23 -16 -44 -34z m55 -55 c-13 -10 -21 -23 -17 -30 4 -6 3 -11 -3 -11 -32 0
-4 58 29 59 10 0 7 -6 -9 -18z m9 -67 c0 -8 -4 -12 -10 -9 -5 3 -10 10 -10 16
0 5 5 9 10 9 6 0 10 -7 10 -16z m362 -74 c16 0 48 -31 48 -46 0 -17 -34 -36
-53 -29 -14 6 -62 84 -56 89 2 2 13 8 24 14 17 9 21 8 23 -9 2 -10 8 -19 14
-19z m-585 -52 c-3 -8 -6 -5 -6 6 -1 11 2 17 5 13 3 -3 4 -12 1 -19z m358 12
c-3 -5 -1 -10 4 -10 6 0 11 -4 11 -10 0 -5 -6 -10 -14 -10 -8 0 -13 8 -11 18
5 23 4 22 11 22 3 0 2 -4 -1 -10z m165 -12 c21 -23 28 -68 9 -68 -5 0 -8 -4
-5 -9 5 -8 -19 -24 -28 -18 -2 1 -13 -6 -24 -17 -28 -25 -45 -17 -47 24 -1 19
-6 50 -10 69 -5 21 -5 32 1 28 6 -3 16 -2 24 4 25 15 58 10 80 -13z m-543 -20
c-3 -8 -6 -5 -6 6 -1 11 2 17 5 13 3 -3 4 -12 1 -19z m-17 -8 c0 -5 -2 -10 -4
-10 -3 0 -8 5 -11 10 -3 6 -1 10 4 10 6 0 11 -4 11 -10z m394 -15 c-3 -6 -11
-12 -18 -12 -8 0 -12 6 -10 12 3 6 11 12 18 12 8 0 12 -6 10 -12z m316 -33
c35 -37 34 -82 -1 -82 -24 0 -69 21 -69 32 0 5 4 7 9 3 6 -3 6 6 1 24 -4 16
-7 31 -5 33 11 11 52 5 65 -10z m-114 -57 c23 -25 23 -55 0 -55 -6 0 -4 -5 4
-10 18 -11 6 -25 -31 -34 -34 -8 -51 13 -47 56 3 28 30 68 46 68 3 0 15 -11
28 -25z m142 -108 c15 -24 15 -28 2 -41 -20 -20 -68 -9 -76 16 -7 23 10 46 20
29 12 -19 24 -12 19 10 -8 30 14 21 35 -14z m99 -125 c-3 -18 -2 -30 3 -27 5
3 11 2 14 -3 2 -4 -9 -17 -24 -27 -25 -17 -29 -26 -27 -57 2 -20 0 -35 -5 -32
-4 3 -8 -1 -8 -9 0 -9 -10 -14 -24 -14 -19 0 -22 4 -18 21 2 11 14 28 25 37
18 15 19 19 6 48 -8 17 -17 31 -21 31 -28 0 -58 17 -58 33 0 14 36 48 60 58 8
3 30 -1 48 -10 31 -14 33 -19 29 -49z m103 -64 c0 -5 -6 -8 -14 -8 -8 0 -21
-3 -30 -6 -12 -5 -14 1 -12 33 2 21 5 40 5 43 2 7 51 -53 51 -62z m-576 -12
c15 -24 13 -56 -4 -56 -12 0 -16 9 -25 48 -8 38 6 42 29 8z m564 -62 c29 -20
30 -76 1 -105 -19 -19 -22 -20 -39 -4 -22 20 -31 60 -17 74 8 8 7 15 -1 23 -7
7 -12 16 -12 20 0 14 44 9 68 -8z m-471 -9 c0 -8 -4 -12 -8 -9 -4 2 -9 -1 -11
-8 -3 -7 -7 -2 -10 10 -5 16 -2 22 11 22 10 0 18 -7 18 -15z m87 -80 c21 -19
26 -31 20 -48 -11 -34 -33 -45 -72 -36 -42 9 -48 15 -55 55 -5 26 -2 33 16 42
36 17 62 14 91 -13z m700 -51 c4 -12 2 -15 -9 -10 -10 3 -15 -1 -15 -13 0 -10
9 -21 20 -24 28 -7 25 -20 -11 -41 -25 -15 -33 -16 -42 -6 -9 10 -8 12 6 7 12
-5 17 -1 17 13 0 11 -7 20 -15 20 -8 0 -15 8 -14 18 0 10 3 12 6 5 2 -7 9 -13
15 -13 5 0 8 6 5 13 -2 6 2 20 11 30 18 21 18 21 26 1z m-619 -88 c33 -14 48
-36 25 -36 -5 0 -10 -7 -10 -15 0 -24 -64 17 -68 43 -4 26 6 27 53 8z m535
-22 c0 -8 -19 -13 -24 -6 -3 5 1 9 9 9 8 0 15 -2 15 -3z m-416 -64 c35 -13 54
-55 38 -80 -17 -27 -2 -33 76 -28 61 3 69 6 102 40 20 20 49 40 63 43 37 10
94 -2 101 -20 6 -17 42 -20 51 -5 11 18 20 10 22 -20 2 -33 -11 -40 -26 -12
-13 22 -22 16 -43 -29 -29 -66 -130 -113 -166 -77 -9 9 -15 8 -25 -6 -12 -17
-14 -15 -12 18 0 20 -4 36 -10 36 -5 0 -3 5 5 10 13 9 13 10 0 11 -33 3 -65
-4 -72 -15 -12 -17 -9 -26 6 -26 8 0 14 -10 15 -22 1 -46 4 -63 13 -74 6 -8
-1 -13 -21 -16 -26 -4 -34 3 -79 61 -28 36 -60 77 -71 90 -26 29 -26 35 -3 26
36 -14 51 -14 45 1 -3 8 -9 14 -15 14 -5 0 -7 4 -4 8 6 9 -23 26 -61 37 -22 6
-30 25 -16 38 9 10 58 8 87 -3z"/>
<path d="M5417 574 c6 -15 23 -19 23 -5 0 5 -7 11 -14 14 -10 4 -13 1 -9 -9z"/>
<path d="M5244 395 c-4 -8 -10 -13 -14 -10 -5 3 -11 1 -15 -4 -3 -5 3 -14 12
-20 14 -8 15 -13 5 -19 -11 -7 -10 -11 0 -20 11 -8 21 -7 42 7 l28 19 -22 15
c-13 9 -17 17 -11 22 16 9 13 25 -4 25 -9 0 -18 -7 -21 -15z"/>
<path d="M5170 353 c0 -19 39 -70 53 -70 17 0 15 6 -17 50 -19 26 -36 35 -36
20z"/>
<path d="M4990 281 c0 -5 5 -13 10 -16 6 -3 10 -2 10 4 0 5 -4 13 -10 16 -5 3
-10 2 -10 -4z"/>
<path d="M5020 225 c0 -5 5 -17 10 -25 5 -8 10 -10 10 -5 0 6 -5 17 -10 25 -5
8 -10 11 -10 5z"/>
<path d="M2337 1498 c-9 -29 -15 -54 -13 -56 2 -2 12 20 21 48 9 28 15 53 13
55 -2 3 -12 -19 -21 -47z"/>
<path d="M1270 1531 c0 -4 16 -29 36 -55 25 -33 39 -45 47 -37 7 7 -1 24 -27
56 -35 42 -56 56 -56 36z"/>
<path d="M2701 1527 c-8 -10 -7 -14 2 -14 8 0 14 6 14 14 0 7 -1 13 -2 13 -2
0 -8 -6 -14 -13z"/>
<path d="M6042 1490 c-26 -23 -38 -41 -32 -45 6 -4 17 -1 25 5 11 10 19 6 38
-15 20 -24 26 -26 45 -16 12 6 22 21 22 32 0 21 -36 79 -48 79 -4 -1 -26 -18
-50 -40z m78 -31 c0 -17 -23 -20 -38 -6 -13 14 -13 18 -2 32 13 16 15 15 27
-1 7 -10 13 -21 13 -25z"/>
<path d="M2485 1499 c-11 -16 -1 -19 13 -3 7 8 8 14 3 14 -5 0 -13 -5 -16 -11z"/>
<path d="M1220 1489 c0 -6 4 -18 10 -28 7 -14 5 -23 -10 -36 -18 -16 -19 -16
-31 3 -7 11 -18 18 -26 15 -9 -4 -5 -16 16 -47 38 -54 57 -71 66 -56 4 6 0 19
-9 29 -16 17 -16 20 0 35 15 15 18 15 33 1 17 -14 41 -21 41 -10 0 3 -16 27
-36 55 -34 48 -54 62 -54 39z"/>
<path d="M1490 1490 c0 -28 34 -129 42 -124 5 3 6 15 2 26 -8 25 23 50 54 43
35 -8 26 2 -30 35 -57 32 -68 35 -68 20z m60 -40 c0 -16 -22 -23 -31 -9 -16
26 -11 41 11 29 11 -6 20 -15 20 -20z"/>
<path d="M5855 1476 c-14 -14 -25 -33 -25 -43 0 -29 29 -63 53 -63 21 1 21 2
-5 21 -32 24 -36 49 -10 72 35 31 72 14 72 -32 1 -24 2 -24 11 -7 9 14 7 24
-8 45 -27 35 -57 38 -88 7z"/>
<path d="M6510 1469 c-30 -4 -94 -24 -142 -44 -75 -32 -86 -39 -78 -54 17 -33
37 -43 59 -32 28 15 28 15 57 -29 23 -34 25 -43 15 -71 -9 -25 -8 -37 6 -60
10 -16 20 -29 23 -29 4 0 20 31 38 69 17 38 53 94 81 125 54 60 55 64 14 112
-16 18 -24 19 -73 13z m-7 -96 c-15 -21 -28 -40 -30 -42 -5 -8 -43 33 -40 43
3 10 61 34 85 35 8 1 2 -14 -15 -36z"/>
<path d="M1434 1396 c14 -19 26 -37 26 -39 0 -3 -22 2 -50 11 -27 9 -53 13
-56 9 -4 -3 6 -23 22 -44 16 -20 32 -41 36 -47 4 -6 10 -7 13 -4 4 4 -5 23
-20 42 -15 20 -25 36 -23 36 2 0 25 -7 51 -16 26 -9 51 -14 57 -12 13 4 -57
98 -73 98 -5 0 2 -15 17 -34z"/>
<path d="M1797 1414 c-8 -9 21 -64 33 -64 12 0 12 0 -1 39 -11 30 -19 37 -32
25z"/>
<path d="M6124 1380 l-42 -39 25 -36 c28 -42 52 -38 26 5 -21 37 -8 53 18 21
24 -30 37 -20 19 14 -18 34 -3 46 20 15 10 -14 22 -22 25 -18 8 7 -32 78 -43
78 -4 0 -26 -18 -48 -40z"/>
<path d="M1642 1401 c-8 -4 5 -26 40 -64 28 -31 55 -57 60 -57 8 0 -67 116
-82 125 -3 2 -11 0 -18 -4z"/>
<path d="M5970 1378 c-14 -11 -36 -29 -49 -39 -13 -11 -21 -22 -17 -26 3 -4
12 -1 18 5 7 7 18 12 26 12 14 0 12 -21 -4 -64 -3 -9 -2 -16 3 -16 6 0 16 18
23 41 13 37 16 40 42 35 15 -3 28 -2 28 3 0 5 -16 12 -36 16 -35 6 -35 7 -18
26 24 27 14 31 -16 7z"/>
<path d="M1077 1372 c-10 -10 -17 -33 -17 -50 0 -38 42 -76 74 -66 25 7 56 40
56 60 0 22 -24 16 -35 -8 -14 -32 -41 -34 -61 -4 -13 21 -14 29 -4 41 7 8 21
15 31 15 11 0 19 7 19 15 0 21 -43 19 -63 -3z"/>
<path d="M2075 1358 c-130 -17 -225 -66 -325 -167 -89 -90 -132 -165 -160
-282 -25 -106 -25 -152 0 -259 19 -78 82 -208 110 -225 22 -14 7 -35 -42 -59
-29 -13 -67 -39 -85 -58 l-32 -33 32 -36 c71 -80 112 -133 112 -145 0 -7 4
-16 9 -21 5 -4 6 -3 2 5 -17 28 12 7 44 -33 l35 -44 315 1 c173 0 307 3 297 5
-20 5 -18 24 2 31 7 2 15 -5 18 -17 3 -12 12 -21 20 -21 12 0 12 3 -2 16 -12
13 -13 20 -5 28 8 8 18 4 35 -16 37 -43 65 -37 137 30 35 32 101 91 148 132
213 185 303 275 258 257 -11 -4 -14 1 -10 19 2 13 9 24 15 24 12 0 -23 29 -35
30 -5 0 -8 -10 -8 -23 0 -39 -27 -67 -65 -67 -38 0 -55 20 -55 67 0 39 46 68
84 53 15 -5 26 -6 26 -1 0 5 -14 12 -30 16 -17 4 -28 11 -24 16 3 5 10 6 16 3
7 -5 8 -2 3 5 -4 7 2 22 15 36 l22 24 -23 33 c-13 18 -23 39 -21 46 3 10 -1
11 -17 2 -12 -6 -21 -14 -21 -18 0 -4 -13 -16 -30 -25 -17 -11 -30 -14 -30 -7
0 6 -12 15 -26 20 -25 10 -26 13 -19 56 4 32 3 44 -4 39 -6 -3 -11 -13 -11
-21 0 -18 -1 -18 -49 9 -23 13 -38 27 -34 30 7 7 -9 10 -43 8 -11 -1 -28 7
-38 18 -10 11 -22 18 -27 16 -7 -5 -22 11 -25 25 0 3 -6 17 -12 33 -11 25 -15
27 -51 21 -37 -6 -39 -5 -34 15 3 12 9 24 14 26 4 3 5 13 2 21 -4 10 7 7 32
-10 74 -50 185 -26 185 40 0 15 11 42 25 60 14 18 25 43 25 56 0 31 21 76 39
83 15 6 33 -14 25 -27 -13 -21 6 -5 20 17 14 22 15 28 3 45 -8 11 -17 17 -20
14 -4 -4 -5 9 -4 28 3 29 0 34 -17 33 -10 -1 -30 -15 -43 -31 -23 -29 -31 -50
-14 -40 4 3 7 -8 5 -24 -2 -17 1 -30 6 -30 5 0 7 -7 4 -15 -4 -8 -10 -12 -16
-9 -5 3 -7 9 -4 12 4 3 -15 21 -41 40 -44 31 -52 33 -102 28 -63 -6 -93 -29
-117 -93 -12 -30 -15 -59 -11 -96 4 -45 2 -55 -14 -65 -10 -7 -19 -8 -19 -3 0
6 4 12 8 15 5 3 7 19 4 35 -2 17 -8 28 -13 25 -10 -6 -59 43 -59 60 0 6 -26
21 -58 34 -75 29 -122 73 -122 116 -1 17 -6 40 -13 51 -11 19 -18 20 -72 13z
m93 -148 c4 -21 2 -22 -12 -7 -19 19 -21 40 -3 35 6 -3 14 -15 15 -28z m442
-36 c0 -5 -6 -19 -14 -29 -14 -19 -15 -19 -37 0 -12 11 -19 14 -15 8 10 -19
-12 -53 -34 -53 -11 0 -27 11 -36 25 -14 21 -15 31 -6 50 13 28 30 32 38 10 4
-8 10 -15 16 -15 5 0 6 5 3 11 -4 6 3 21 16 35 l23 24 23 -27 c12 -16 22 -33
23 -39z m-451 -1 c26 -31 28 -39 16 -46 -9 -4 -25 -5 -38 -1 -19 6 -20 5 -9
-9 8 -9 11 -21 7 -27 -9 -14 -75 47 -75 68 0 11 9 13 37 9 27 -5 33 -3 25 5
-14 14 -16 38 -3 38 5 0 23 -17 40 -37z m484 -23 c4 -15 -7 -33 -38 -65 -43
-44 -55 -51 -68 -38 -10 10 13 33 34 33 12 0 16 5 13 15 -4 8 -2 15 3 15 5 0
17 14 26 30 21 36 23 36 30 10z m54 -15 c-2 -24 -94 -125 -114 -125 -6 0 -13
-8 -16 -17 -4 -17 -4 -17 -12 -1 -5 14 8 34 56 84 35 36 63 72 63 79 -1 8 4
11 12 8 7 -2 12 -15 11 -28z m-623 -28 c27 -35 33 -57 17 -57 -14 0 -72 76
-64 84 12 12 22 6 47 -27z m-59 -20 c0 -14 8 -23 24 -27 38 -9 40 -34 3 -28
-27 4 -30 2 -21 -13 22 -41 -3 -39 -39 3 -31 37 -34 54 -9 50 11 -2 17 4 17
16 0 21 10 35 19 26 3 -3 6 -15 6 -27z m229 -18 c35 -41 34 -83 -1 -48 -16 16
-37 1 -23 -16 12 -14 6 -35 -9 -35 -9 0 -61 71 -61 83 0 12 28 8 33 -5 4 -10
8 -9 16 2 7 10 7 17 -1 21 -11 7 -3 29 12 29 4 0 20 -14 34 -31z m-294 -43 c0
-7 -9 -16 -21 -19 -13 -4 -20 -12 -17 -24 5 -26 38 -29 45 -4 6 22 18 27 28
11 10 -16 -14 -49 -41 -56 -50 -13 -83 48 -47 88 19 21 53 24 53 4z m200 -17
c0 -6 -9 -13 -20 -16 -22 -6 -27 -37 -8 -49 6 -4 19 3 30 16 16 20 21 21 28 9
7 -10 2 -21 -15 -39 -24 -24 -27 -24 -53 -10 -30 17 -41 62 -21 86 13 16 59
19 59 3z m-258 -74 c27 -60 -49 -107 -86 -53 -20 28 -20 43 0 62 25 26 72 20
86 -9z m191 -10 c33 -41 28 -59 -15 -50 -28 7 -29 6 -17 -14 23 -36 -2 -37
-32 -1 -39 46 -38 64 1 56 28 -5 30 -4 20 14 -24 44 6 41 43 -5z m261 -41 c-6
-31 -26 -54 -48 -54 -25 0 -19 32 12 57 35 29 42 29 36 -3z m-556 -11 c2 -12
12 -25 23 -28 31 -10 22 -28 -11 -21 -17 3 -30 1 -30 -4 0 -6 5 -10 10 -10 6
0 10 -4 10 -10 0 -19 -26 -10 -53 18 -33 34 -33 39 -4 63 28 24 51 20 55 -8z
m661 3 c8 -10 8 -16 -2 -24 -15 -13 -37 2 -37 25 0 17 25 17 39 -1z m-455 -27
c44 -26 45 -35 5 -43 -17 -3 -28 -10 -24 -16 4 -6 -4 -21 -16 -34 -18 -19 -28
-22 -46 -15 -21 8 -22 7 -13 -11 7 -13 7 -21 -1 -25 -6 -4 -11 -5 -13 -4 -1 2
-14 19 -29 38 -26 32 -27 35 -11 52 18 20 64 26 64 9 0 -21 2 -25 16 -33 24
-13 28 -1 16 42 -21 69 -10 77 52 40z m573 -44 c3 -37 -29 -64 -52 -45 -8 7
-19 9 -24 5 -7 -3 -8 0 -5 9 4 11 0 16 -10 16 -9 0 -16 5 -16 11 0 6 7 8 16 5
8 -3 12 -2 9 4 -12 19 7 31 43 28 33 -3 37 -6 39 -33z m-143 3 c9 -12 16 -30
16 -39 0 -26 -32 -58 -65 -65 -28 -5 -31 -3 -43 36 -14 46 -7 65 33 80 32 14
43 11 59 -12z m223 -78 c-4 -17 -2 -30 3 -30 20 0 9 -21 -16 -30 -39 -15 -55
6 -41 53 9 29 17 37 36 37 21 0 23 -3 18 -30z m-481 4 c-3 -9 -6 -20 -6 -25 0
-4 -7 -6 -15 -3 -10 4 -13 2 -10 -7 4 -10 -3 -14 -20 -14 -33 0 -32 8 6 39 35
29 54 34 45 10z m130 -52 c19 -43 7 -64 -40 -69 -30 -3 -36 0 -36 16 0 11 -4
21 -9 23 -4 2 -12 13 -15 26 -6 18 -2 25 23 40 17 9 31 22 31 27 1 15 30 -25
46 -63z m204 48 c9 0 40 -57 40 -74 0 -6 -10 -17 -21 -25 -19 -11 -24 -10 -42
8 -16 16 -18 23 -8 35 10 12 9 16 -5 24 -22 12 -11 47 12 38 9 -3 19 -6 24 -6z
m-60 -113 c0 -43 -15 -51 -46 -23 -23 20 -25 25 -11 26 9 0 17 4 17 8 0 4 9 8
20 9 14 1 20 -4 20 -20z m158 -20 c2 -12 -3 -17 -17 -17 -15 0 -21 6 -21 21 0
25 33 22 38 -4z m-433 -1 c31 -23 30 -61 -4 -85 -37 -27 -39 -26 -33 4 3 19 1
24 -10 20 -25 -10 -40 18 -25 48 13 30 42 35 72 13z m-147 -10 c-2 -1 -12 -8
-22 -16 -18 -14 -18 -14 -6 7 8 12 18 19 23 16 4 -3 7 -6 5 -7z m272 -21 c0
-8 9 -20 20 -27 25 -16 25 -27 1 -56 -22 -26 -58 -26 -82 0 -9 10 -19 14 -24
10 -4 -4 -4 9 0 28 4 19 14 41 23 48 22 17 62 15 62 -3z m218 -20 c12 -1 22 2
22 6 0 5 5 9 10 9 15 0 12 -16 -5 -34 -8 -8 -15 -22 -15 -30 0 -19 -45 -50
-60 -41 -6 4 -9 14 -6 22 4 9 1 21 -5 29 -16 19 -1 57 19 49 10 -4 27 -8 40
-10z m-448 -35 c13 -11 19 -20 14 -20 -5 0 -3 -4 4 -8 9 -6 6 -14 -13 -30 -14
-12 -25 -17 -25 -11 0 6 -9 8 -20 4 -16 -5 -19 -2 -17 14 2 12 8 26 14 32 6 6
9 18 6 25 -7 20 10 17 37 -6z m766 -55 c14 -21 14 -30 4 -56 -8 -18 -18 -28
-26 -25 -8 3 -14 -1 -14 -8 0 -20 -25 -27 -46 -12 -20 15 -11 36 16 36 13 0
17 5 14 14 -5 12 23 76 33 76 1 0 10 -11 19 -25z m-415 -45 c-7 -4 -14 -15
-15 -25 -3 -21 -26 -34 -26 -15 0 7 -8 10 -20 7 -11 -3 -18 -1 -15 3 3 5 -1
10 -7 13 -10 3 -10 7 1 20 7 10 19 17 25 17 6 0 20 10 31 22 l19 22 9 -28 c7
-20 6 -30 -2 -36z m-218 14 c18 -24 18 -26 1 -45 -17 -19 -54 -27 -54 -11 0 4
8 18 17 32 12 17 13 25 5 28 -7 2 -12 10 -12 18 0 19 21 8 43 -22z m667 -43
c0 -10 -53 -51 -66 -51 -4 0 5 14 21 30 29 30 45 38 45 21z m-154 -22 c3 -6
-8 -24 -26 -41 -25 -23 -35 -26 -41 -16 -14 22 -10 30 14 23 17 -5 19 -4 7 4
-13 9 -12 12 5 25 24 19 32 19 41 5z m-616 -50 c0 -24 -14 -31 -45 -23 -30 8
-31 14 -4 43 16 17 24 20 35 10 8 -6 14 -20 14 -30z m393 6 c5 -30 -22 -52
-41 -33 -9 9 -12 8 -12 -2 0 -13 -2 -13 -10 0 -14 21 -12 30 5 30 9 0 12 6 9
15 -5 11 1 15 19 15 18 0 26 -6 30 -25z m243 9 c-4 -10 -2 -13 6 -8 8 5 9 2 5
-10 -5 -14 -3 -17 8 -12 25 9 17 -8 -17 -37 -17 -15 -37 -26 -44 -23 -9 3 -11
0 -7 -11 5 -13 2 -15 -16 -10 -18 4 -21 2 -16 -14 4 -10 3 -19 -1 -19 -13 0
-44 33 -44 47 0 7 -5 12 -12 11 -21 -5 -20 30 2 52 21 21 23 21 41 4 18 -16
20 -16 42 2 12 10 26 25 30 32 11 17 30 15 23 -4z m-506 -4 c0 -5 -2 -10 -4
-10 -3 0 -8 5 -11 10 -3 6 -1 10 4 10 6 0 11 -4 11 -10z m-250 -36 c0 -6 -27
-34 -33 -34 -3 0 -7 9 -10 20 -4 16 0 20 19 20 13 0 24 -3 24 -6z m365 -23
c-3 -6 -11 -8 -17 -5 -6 4 -5 9 3 15 16 10 23 4 14 -10z m129 -200 c29 -32 13
-41 -17 -10 -18 18 -23 29 -14 29 8 0 22 -9 31 -19z"/>
<path d="M1825 920 c-9 -15 4 -30 26 -30 12 0 19 7 19 20 0 21 -33 29 -45 10z"/>
<path d="M1745 860 c-3 -5 -2 -10 4 -10 5 0 13 5 16 10 3 6 2 10 -4 10 -5 0
-13 -4 -16 -10z"/>
<path d="M1875 780 c-3 -5 -1 -10 4 -10 6 0 11 5 11 10 0 6 -2 10 -4 10 -3 0
-8 -4 -11 -10z"/>
<path d="M2690 289 c0 -5 5 -7 10 -4 6 3 10 8 10 11 0 2 -4 4 -10 4 -5 0 -10
-5 -10 -11z"/>
<path d="M2206 1345 c-3 -8 -1 -15 4 -15 6 0 10 7 10 15 0 8 -2 15 -4 15 -2 0
-6 -7 -10 -15z"/>
<path d="M1276 1317 c-11 -8 -17 -23 -14 -38 3 -25 26 -30 76 -14 21 7 23 5
20 -16 -2 -19 -9 -24 -30 -24 -30 1 -37 -12 -13 -21 21 -8 65 22 65 45 0 32
-25 45 -59 31 -35 -14 -58 -5 -40 16 6 8 20 14 30 14 11 0 19 5 19 10 0 14
-33 12 -54 -3z"/>
<path d="M2875 1301 c-3 -6 -1 -11 5 -11 6 0 8 -4 5 -10 -3 -5 -2 -10 3 -10
20 0 21 -45 2 -65 -11 -11 -20 -15 -20 -9 0 23 -41 6 -65 -26 l-25 -33 28 -17
c35 -21 60 -59 71 -107 5 -22 9 -29 10 -17 1 24 23 37 46 28 10 -4 15 -20 15
-45 0 -27 4 -39 14 -39 15 0 30 -45 21 -60 -4 -6 -1 -10 6 -10 7 0 1 -12 -13
-27 -47 -51 -61 -80 -49 -102 6 -11 8 -27 4 -37 -5 -14 -3 -16 11 -11 14 6 16
3 11 -13 -4 -11 -2 -20 4 -20 6 0 11 5 11 12 0 6 3 9 6 5 6 -6 81 80 152 176
45 60 51 64 70 45 15 -15 16 -32 2 -23 -17 11 22 -68 49 -98 l25 -27 33 32
c18 18 33 34 33 37 0 6 -62 79 -245 289 -38 44 -86 99 -105 123 -21 25 -45 43
-59 44 -13 1 -29 9 -36 19 -8 11 -15 13 -20 7z m131 -186 c9 -14 14 -28 11
-31 -7 -7 -47 32 -47 46 0 18 19 10 36 -15z m79 -112 c13 -66 -20 -26 -40 47
l-7 25 20 -20 c11 -11 23 -35 27 -52z m-73 -105 c-7 -7 -12 -8 -12 -2 0 14 12
26 19 19 2 -3 -1 -11 -7 -17z"/>
<path d="M6040 1275 c-8 -9 -9 -29 -5 -56 6 -36 5 -40 -11 -37 -12 2 -21 15
-24 33 -4 21 -8 26 -14 17 -24 -39 30 -90 61 -59 13 13 13 21 4 48 -7 20 -8
36 -2 42 15 15 31 -2 31 -31 0 -19 3 -23 11 -15 14 14 3 50 -21 63 -13 7 -21
6 -30 -5z"/>
<path d="M6197 1264 c-29 -9 -47 -20 -44 -27 2 -7 12 -10 23 -9 25 5 46 -25
34 -49 -7 -12 -6 -20 1 -24 6 -4 12 -5 13 -4 9 10 56 110 56 119 0 13 -25 12
-83 -6z m47 -29 c-4 -8 -10 -12 -15 -9 -11 6 -2 24 11 24 5 0 7 -7 4 -15z"/>
<path d="M2420 1260 c0 -5 5 -10 10 -10 6 0 10 5 10 10 0 6 -4 10 -10 10 -5 0
-10 -4 -10 -10z"/>
<path d="M1595 1241 c-6 -11 53 -56 62 -47 7 7 -36 56 -48 56 -4 0 -10 -4 -14
-9z"/>
<path d="M2748 1152 c-3 -11 0 -19 7 -19 7 0 10 8 7 19 -2 10 -6 18 -7 18 -1
0 -5 -8 -7 -18z"/>
<path d="M1434 1149 c-3 -6 -2 -14 2 -18 16 -13 135 -63 140 -58 4 4 -121 87
-131 87 -2 0 -7 -5 -11 -11z"/>
<path d="M4547 1100 c-12 -44 -8 -56 28 -73 41 -20 45 -20 45 -8 0 5 -9 11
-20 14 -14 3 -20 14 -20 31 0 14 -4 26 -9 26 -5 0 -11 8 -13 18 -3 13 -5 11
-11 -8z"/>
<path d="M1120 1092 c0 -15 21 -26 113 -55 133 -43 282 -80 300 -74 6 2 -35
18 -93 36 -58 18 -143 48 -190 66 -127 49 -130 50 -130 27z"/>
<path d="M2777 1073 c-4 -3 -2 -12 5 -20 6 -7 8 -17 4 -20 -4 -4 -12 -1 -17 7
-9 13 -10 13 -6 0 2 -8 12 -14 21 -13 11 0 15 -4 12 -14 -3 -8 -1 -11 4 -8 6
3 10 14 10 23 -1 21 -25 54 -33 45z"/>
<path d="M2715 1030 c-9 -14 14 -52 28 -47 15 5 22 37 8 37 -6 0 -8 -7 -5 -15
4 -8 2 -15 -4 -15 -12 0 -24 29 -16 41 3 5 3 9 0 9 -3 0 -8 -4 -11 -10z"/>
<path d="M6145 1020 c3 -5 8 -10 11 -10 2 0 4 5 4 10 0 6 -5 10 -11 10 -5 0
-7 -4 -4 -10z"/>
<path d="M2906 1011 c-4 -7 -5 -15 -2 -18 9 -9 19 4 14 18 -4 11 -6 11 -12 0z"/>
<path d="M5941 1009 c-151 -11 -166 -20 -21 -12 118 6 242 21 170 20 -19 0
-86 -4 -149 -8z"/>
<path d="M4070 932 c-8 -117 -5 -205 8 -210 6 -2 20 -22 30 -45 10 -23 26 -48
35 -56 10 -7 17 -19 17 -26 0 -8 3 -15 8 -17 14 -6 72 -101 72 -119 0 -9 7
-19 15 -22 8 -4 24 -23 35 -44 19 -35 77 -123 97 -148 4 -6 18 -29 31 -53 l24
-43 -21 -35 c-28 -47 -26 -56 6 -39 23 12 30 12 56 -3 16 -9 40 -29 52 -44 24
-28 25 -28 150 -28 89 0 124 3 119 11 -4 7 1 7 16 -1 27 -14 35 -8 21 18 -15
28 -3 34 27 14 18 -11 23 -13 18 -3 -5 8 -3 17 5 23 12 8 11 9 -1 5 -8 -2 -23
6 -33 17 -10 12 -16 16 -13 9 4 -6 2 -14 -4 -18 -5 -3 -10 -1 -10 4 0 6 -5 11
-11 11 -5 0 -7 -6 -3 -13 4 -6 -2 -4 -14 7 -12 10 -19 23 -16 27 9 15 -29 10
-47 -7 -16 -15 -21 -11 -76 58 -32 41 -103 139 -158 217 -55 79 -141 201 -192
271 -50 71 -117 170 -148 222 -32 51 -61 95 -66 96 -5 2 -9 10 -9 18 0 8 -3
14 -7 14 -5 0 -10 -30 -13 -68z"/>
<path d="M1292 863 c4 -20 36 -28 147 -39 54 -5 72 -4 67 5 -4 6 -16 11 -28
11 -11 0 -46 6 -77 14 -115 29 -113 28 -109 9z"/>
<path d="M2751 834 c0 -11 3 -14 6 -6 3 7 2 16 -1 19 -3 4 -6 -2 -5 -13z"/>
<path d="M5823 843 c15 -2 37 -2 50 0 12 2 0 4 -28 4 -27 0 -38 -2 -22 -4z"/>
<path d="M3177 809 c4 -13 8 -18 11 -10 2 7 -1 18 -6 23 -8 8 -9 4 -5 -13z"/>
<path d="M5735 737 c54 -25 129 -45 190 -51 41 -4 55 -3 45 4 -8 5 -27 10 -41
10 -14 0 -61 10 -105 21 -111 30 -123 32 -89 16z"/>
<path d="M1190 728 c0 -18 113 -33 234 -29 114 2 117 15 6 22 -52 4 -128 10
-167 14 -62 7 -73 6 -73 -7z"/>
<path d="M3046 696 c3 -9 10 -16 14 -16 5 0 11 -9 15 -19 3 -11 13 -22 21 -25
11 -4 10 1 -5 22 -11 16 -27 35 -36 42 -13 11 -14 10 -9 -4z"/>
<path d="M3142 677 c-12 -13 -22 -28 -22 -34 0 -6 -11 -18 -25 -27 -14 -9 -25
-21 -25 -27 0 -8 4 -8 13 0 10 8 14 7 14 -3 0 -8 -7 -13 -16 -11 -17 3 -57
-33 -47 -42 3 -4 16 2 28 13 l22 19 -18 -28 c-10 -16 -16 -31 -13 -33 8 -8 66
69 60 79 -3 6 -1 7 4 4 23 -14 59 53 40 73 -9 10 -9 11 0 6 8 -4 11 1 10 14
-1 11 -2 20 -2 20 -1 0 -11 -10 -23 -23z"/>
<path d="M5630 635 c0 -6 77 -45 90 -45 26 0 5 20 -37 34 -52 18 -53 18 -53
11z"/>
<path d="M1432 581 c3 -18 64 -27 106 -16 38 9 14 22 -51 27 -49 4 -57 2 -55
-11z"/>
<path d="M5546 539 c10 -11 28 -26 39 -31 14 -8 12 -2 -9 21 -33 34 -61 44
-30 10z"/>
<path d="M3000 528 c0 -9 7 -19 16 -22 15 -6 15 -4 3 11 -7 10 -15 20 -16 22
-2 2 -3 -3 -3 -11z"/>
<path d="M1491 438 c-56 -49 -69 -72 -17 -33 19 14 56 32 82 38 59 15 71 37
20 37 -27 0 -47 -10 -85 -42z"/>
<path d="M2860 476 c0 -2 8 -10 18 -17 15 -13 16 -12 3 4 -13 16 -21 21 -21
13z"/>
<path d="M6586 223 c-11 -11 -6 -23 9 -23 8 0 15 4 15 9 0 13 -16 22 -24 14z"/>
</g>
</svg>
